OxygenSans-Regular-kernagic.ufo
<glyph name="exclam" format="1">
  <advance width="570"/>
  <unicode hex="0021"/>
  <outline>
    <contour>
      <point x="251" y="429" type="line"/>
      <point x="317" y="429" type="line"/>
      <point x="369" y="1335" type="line"/>
      <point x="369" y="1457" type="line"/>
      <point x="193" y="1457" type="line"/>
      <point x="193" y="1335" type="line"/>
    </contour>
    <contour>
      <point x="285" y="-13" type="curve" smooth="yes"/>
      <point x="365" y="-13"/>
      <point x="400" y="45"/>
      <point x="400" y="105" type="curve" smooth="yes"/>
      <point x="400" y="162"/>
      <point x="365" y="222"/>
      <point x="285" y="222" type="curve" smooth="yes"/>
      <point x="205" y="222"/>
      <point x="170" y="162"/>
      <point x="170" y="105" type="curve" smooth="yes"/>
      <point x="170" y="47"/>
      <point x="205" y="-13"/>
    </contour>
  </outline>
</glyph>
<glyph name="quotedbl" format="1">
  <advance width="734"></advance>
  <unicode hex="0022"></unicode>
  <outline>
    <contour>
      <point x="191" y="827" type="line"></point>
      <point x="266" y="827" type="line"></point>
      <point x="329" y="1433" type="line"></point>
      <point x="131" y="1433" type="line"></point>
    </contour>
    <contour>
      <point x="460" y="827" type="line"></point>
      <point x="536" y="827" type="line"></point>
      <point x="605" y="1433" type="line"></point>
      <point x="417" y="1433" type="line"></point>
    </contour>
  </outline>
</glyph>
<glyph name="numbersign" format="1">
  <advance width="1037"></advance>
  <unicode hex="0023"></unicode>
  <outline>
    <contour>
      <point x="502" y="-20" type="line"></point>
      <point x="627" y="-20" type="line"></point>
      <point x="720" y="442" type="line"></point>
      <point x="928" y="442" type="line"></point>
      <point x="943" y="536" type="line"></point>
      <point x="740" y="536" type="line"></point>
      <point x="833" y="992" type="line"></point>
      <point x="1024" y="992" type="line"></point>
      <point x="1039" y="1085" type="line"></point>
      <point x="851" y="1085" type="line"></point>
      <point x="933" y="1497" type="line"></point>
      <point x="809" y="1497" type="line"></point>
      <point x="726" y="1085" type="line"></point>
      <point x="443" y="1085" type="line"></point>
      <point x="525" y="1497" type="line"></point>
      <point x="399" y="1497" type="line"></point>
      <point x="317" y="1085" type="line"></point>
      <point x="114" y="1085" type="line"></point>
      <point x="101" y="992" type="line"></point>
      <point x="298" y="992" type="line"></point>
      <point x="205" y="536" type="line"></point>
      <point x="18" y="536" type="line"></point>
      <point x="5" y="442" type="line"></point>
      <point x="187" y="442" type="line"></point>
      <point x="94" y="-20" type="line"></point>
      <point x="218" y="-20" type="line"></point>
      <point x="312" y="442" type="line"></point>
      <point x="594" y="442" type="line"></point>
    </contour>
    <contour>
      <point x="614" y="536" type="line"></point>
      <point x="330" y="536" type="line"></point>
      <point x="424" y="992" type="line"></point>
      <point x="707" y="992" type="line"></point>
    </contour>
  </outline>
</glyph>
<glyph name="dollar" format="1">
<<<<<<< HEAD
  <advance width="571"></advance>
  <unicode hex="0024"></unicode>
  <outline>
    <contour>
      <point x="179" y="-278" type="line"></point>
      <point x="315" y="-278" type="line"></point>
      <point x="353" y="61" type="line"></point>
      <point x="218" y="61" type="line"></point>
    </contour>
    <contour>
      <point x="363" y="1785" type="line"></point>
      <point x="233" y="1785" type="line"></point>
      <point x="195" y="1446" type="line"></point>
      <point x="326" y="1446" type="line"></point>
=======
  <advance width="604"></advance>
  <unicode hex="0024"></unicode>
  <outline>
    <contour>
      <point x="207" y="-266" type="line"></point>
      <point x="343" y="-266" type="line"></point>
      <point x="381" y="60" type="line"></point>
      <point x="246" y="60" type="line"></point>
    </contour>
    <contour>
      <point x="391" y="1715" type="line"></point>
      <point x="261" y="1715" type="line"></point>
      <point x="223" y="1389" type="line"></point>
      <point x="354" y="1389" type="line"></point>
>>>>>>> a682e5496193d53979a8881d15f4a58493c1359d
    </contour>
    <component base="S"></component>
  </outline>
</glyph>
<glyph name="percent" format="1">
  <advance width="1501"></advance>
  <unicode hex="0025"></unicode>
  <outline>
    <contour>
      <point x="198" y="0" type="line"></point>
      <point x="1027" y="1457" type="line"></point>
      <point x="1149" y="1457" type="line"></point>
      <point x="330" y="0" type="line"></point>
    </contour>
    <contour>
      <point x="302" y="714" type="curve" smooth="yes"></point>
      <point x="76" y="714"></point>
      <point x="5" y="881"></point>
      <point x="5" y="1096" type="curve" smooth="yes"></point>
      <point x="5" y="1313"></point>
      <point x="80" y="1477"></point>
      <point x="302" y="1477" type="curve" smooth="yes"></point>
      <point x="529" y="1477"></point>
      <point x="602" y="1316"></point>
      <point x="602" y="1096" type="curve" smooth="yes"></point>
      <point x="602" y="881"></point>
      <point x="526" y="714"></point>
    </contour>
    <contour>
      <point x="303" y="810" type="curve" smooth="yes"></point>
      <point x="459" y="810"></point>
      <point x="486" y="936"></point>
      <point x="486" y="1097" type="curve" smooth="yes"></point>
      <point x="486" y="1264"></point>
      <point x="458" y="1381"></point>
      <point x="303" y="1381" type="curve" smooth="yes"></point>
      <point x="147" y="1381"></point>
      <point x="119" y="1258"></point>
      <point x="119" y="1097" type="curve" smooth="yes"></point>
      <point x="119" y="931"></point>
      <point x="147" y="810"></point>
    </contour>
    <contour>
      <point x="1048" y="94" type="curve" smooth="yes"></point>
      <point x="1204" y="94"></point>
      <point x="1231" y="221"></point>
      <point x="1231" y="382" type="curve" smooth="yes"></point>
      <point x="1231" y="549"></point>
      <point x="1203" y="666"></point>
      <point x="1048" y="666" type="curve" smooth="yes"></point>
      <point x="892" y="666"></point>
      <point x="864" y="543"></point>
      <point x="864" y="382" type="curve" smooth="yes"></point>
      <point x="864" y="216"></point>
      <point x="892" y="94"></point>
    </contour>
    <contour>
      <point x="1047" y="-1" type="curve" smooth="yes"></point>
      <point x="821" y="-1"></point>
      <point x="748" y="166"></point>
      <point x="748" y="381" type="curve" smooth="yes"></point>
      <point x="748" y="598"></point>
      <point x="825" y="763"></point>
      <point x="1047" y="763" type="curve" smooth="yes"></point>
      <point x="1274" y="763"></point>
      <point x="1347" y="601"></point>
      <point x="1347" y="381" type="curve" smooth="yes"></point>
      <point x="1347" y="166"></point>
      <point x="1271" y="-1"></point>
    </contour>
  </outline>
</glyph>
<glyph name="ampersand" format="1">
  <advance width="1265"/>
  <unicode hex="0026"/>
  <outline>
    <contour>
      <point x="886" y="1164" type="curve" smooth="yes"/>
      <point x="886" y="1366"/>
      <point x="741" y="1473"/>
      <point x="539" y="1476" type="curve" smooth="yes"/>
      <point x="315" y="1479"/>
      <point x="158" y="1348"/>
      <point x="158" y="1156" type="curve" smooth="yes"/>
      <point x="158" y="1034"/>
      <point x="210" y="928"/>
      <point x="305" y="820" type="curve" smooth="yes"/>
      <point x="332" y="790" type="line"/>
      <point x="175" y="700"/>
      <point x="33" y="583"/>
      <point x="33" y="342" type="curve" smooth="yes"/>
      <point x="33" y="140"/>
      <point x="221" y="-20"/>
      <point x="483" y="-20" type="curve" smooth="yes"/>
      <point x="666" y="-20"/>
      <point x="781" y="27"/>
      <point x="923" y="138" type="curve"/>
      <point x="1076" y="-36" type="line"/>
      <point x="1192" y="62" type="line"/>
      <point x="1033" y="240" type="line"/>
      <point x="1100" y="311"/>
      <point x="1163" y="400"/>
      <point x="1223" y="506" type="curve"/>
      <point x="1109" y="583" type="line"/>
      <point x="1056" y="486"/>
      <point x="999" y="406"/>
      <point x="941" y="341" type="curve"/>
      <point x="540" y="767" type="line"/>
      <point x="712" y="861"/>
      <point x="886" y="946"/>
    </contour>
    <contour>
      <point x="459" y="857" type="curve"/>
      <point x="437" y="882" type="line" smooth="yes"/>
      <point x="343" y="986"/>
      <point x="305" y="1073"/>
      <point x="305" y="1167" type="curve" smooth="yes"/>
      <point x="305" y="1285"/>
      <point x="404" y="1357"/>
      <point x="541" y="1354" type="curve" smooth="yes"/>
      <point x="670" y="1351"/>
      <point x="737" y="1279"/>
      <point x="737" y="1159" type="curve" smooth="yes"/>
      <point x="737" y="1002"/>
      <point x="606" y="935"/>
    </contour>
    <contour>
      <point x="833" y="240" type="line"/>
      <point x="720" y="153"/>
      <point x="609" y="116"/>
      <point x="509" y="114" type="curve" smooth="yes"/>
      <point x="319" y="110"/>
      <point x="193" y="213"/>
      <point x="193" y="358" type="curve" smooth="yes"/>
      <point x="193" y="524"/>
      <point x="292" y="618"/>
      <point x="415" y="695" type="curve"/>
    </contour>
  </outline>
</glyph>
<glyph name="quotesingle" format="1">
  <advance width="518"/>
  <unicode hex="0027"/>
  <outline>
    <contour>
      <point x="219" y="953" type="line"/>
      <point x="310" y="953" type="line"/>
      <point x="348" y="1473" type="line"/>
      <point x="183" y="1473" type="line"/>
    </contour>
  </outline>
</glyph>
<glyph name="parenleft" format="1">
  <advance width="703"></advance>
  <unicode hex="0028"></unicode>
  <outline>
    <contour>
      <point x="424" y="-229" type="curve"></point>
      <point x="578" y="-229" type="line"></point>
      <point x="394" y="67"></point>
      <point x="326" y="389"></point>
      <point x="326" y="714" type="curve" smooth="yes"></point>
      <point x="326" y="1024"></point>
      <point x="401" y="1311"></point>
      <point x="579" y="1590" type="curve"></point>
      <point x="422" y="1590" type="line"></point>
      <point x="258" y="1345"></point>
      <point x="164" y="1040"></point>
      <point x="164" y="710" type="curve" smooth="yes"></point>
      <point x="164" y="349"></point>
      <point x="260" y="5"></point>
    </contour>
  </outline>
</glyph>
<glyph name="parenright" format="1">
  <advance width="703"></advance>
  <unicode hex="0029"></unicode>
  <outline>
    <contour>
      <point x="114" y="-229" type="curve"></point>
      <point x="269" y="-229" type="line"></point>
      <point x="429" y="-4"></point>
      <point x="528" y="354"></point>
      <point x="528" y="716" type="curve" smooth="yes"></point>
      <point x="528" y="1045"></point>
      <point x="438" y="1337"></point>
      <point x="270" y="1590" type="curve"></point>
      <point x="113" y="1590" type="line"></point>
      <point x="301" y="1284"></point>
      <point x="366" y="1021"></point>
      <point x="366" y="718" type="curve" smooth="yes"></point>
      <point x="366" y="386"></point>
      <point x="287" y="41"></point>
    </contour>
  </outline>
</glyph>
<glyph name="asterisk" format="1">
  <advance width="981"></advance>
  <unicode hex="002A"></unicode>
  <outline>
    <contour>
      <point x="296" y="599" type="line"></point>
      <point x="166" y="681" type="line"></point>
      <point x="397" y="991" type="line"></point>
      <point x="56" y="1068" type="line"></point>
      <point x="98" y="1215" type="line"></point>
      <point x="434" y="1075" type="line"></point>
      <point x="400" y="1456" type="line"></point>
      <point x="560" y="1456" type="line"></point>
      <point x="524" y="1075" type="line"></point>
      <point x="862" y="1215" type="line"></point>
      <point x="904" y="1068" type="line"></point>
      <point x="559" y="991" type="line"></point>
      <point x="597" y="940"></point>
      <point x="703" y="798"></point>
      <point x="796" y="681" type="curve"></point>
      <point x="739" y="645"></point>
      <point x="724" y="635"></point>
      <point x="667" y="599" type="curve"></point>
      <point x="475" y="937" type="line"></point>
    </contour>
  </outline>
</glyph>
<glyph name="plus" format="1">
<<<<<<< HEAD
  <advance width="1061"></advance>
  <unicode hex="002B"></unicode>
  <outline>
    <contour>
      <point x="448" y="227" type="line"></point>
      <point x="620" y="227" type="line"></point>
      <point x="620" y="611" type="line"></point>
      <point x="973" y="611" type="line"></point>
      <point x="973" y="777" type="line"></point>
      <point x="620" y="777" type="line"></point>
      <point x="620" y="1156" type="line"></point>
      <point x="449" y="1156" type="line"></point>
      <point x="449" y="777" type="line"></point>
      <point x="90" y="777" type="line"></point>
      <point x="90" y="611" type="line"></point>
      <point x="448" y="611" type="line"></point>
=======
  <advance width="1080"></advance>
  <unicode hex="002B"></unicode>
  <outline>
    <contour>
      <point x="453" y="217" type="line"></point>
      <point x="625" y="217" type="line"></point>
      <point x="625" y="585" type="line"></point>
      <point x="978" y="585" type="line"></point>
      <point x="978" y="745" type="line"></point>
      <point x="625" y="745" type="line"></point>
      <point x="625" y="1108" type="line"></point>
      <point x="454" y="1108" type="line"></point>
      <point x="454" y="745" type="line"></point>
      <point x="95" y="745" type="line"></point>
      <point x="95" y="585" type="line"></point>
      <point x="453" y="585" type="line"></point>
>>>>>>> a682e5496193d53979a8881d15f4a58493c1359d
    </contour>
  </outline>
</glyph>
<glyph name="comma" format="1">
  <advance width="561"></advance>
  <unicode hex="002C"></unicode>
  <outline>
    <contour>
      <point x="174" y="-318" type="line"></point>
      <point x="271" y="-318" type="line"></point>
      <point x="388" y="116" type="line"></point>
      <point x="388" y="195" type="line"></point>
      <point x="215" y="195" type="line"></point>
    </contour>
  </outline>
</glyph>
<glyph name="hyphen" format="1">
  <advance width="775"></advance>
  <unicode hex="002D"></unicode>
  <outline>
    <contour>
<<<<<<< HEAD
      <point x="148" y="535" type="line"></point>
      <point x="639" y="535" type="line"></point>
      <point x="639" y="690" type="line"></point>
      <point x="148" y="690" type="line"></point>
=======
      <point x="150" y="509" type="line"></point>
      <point x="641" y="509" type="line"></point>
      <point x="641" y="658" type="line"></point>
      <point x="150" y="658" type="line"></point>
>>>>>>> a682e5496193d53979a8881d15f4a58493c1359d
    </contour>
  </outline>
</glyph>
<glyph name="period" format="1">
  <advance width="604"></advance>
  <unicode hex="002E"></unicode>
  <outline>
    <contour>
      <point x="301" y="-35" type="curve" smooth="yes"></point>
      <point x="379" y="-35"></point>
      <point x="413" y="20"></point>
      <point x="413" y="77" type="curve" smooth="yes"></point>
      <point x="413" y="132"></point>
      <point x="379" y="189"></point>
      <point x="301" y="189" type="curve" smooth="yes"></point>
      <point x="222" y="189"></point>
      <point x="186" y="132"></point>
      <point x="186" y="77" type="curve" smooth="yes"></point>
      <point x="186" y="20"></point>
      <point x="223" y="-35"></point>
    </contour>
    <contour>
      <point x="294" y="73.904" type="move" name="_mid"></point>
    </contour>
  </outline>
</glyph>
<glyph name="slash" format="1">
<<<<<<< HEAD
  <advance width="857"></advance>
  <unicode hex="002F"></unicode>
  <outline>
    <contour>
      <point x="71" y="0" type="line"></point>
      <point x="215" y="0" type="line"></point>
      <point x="828" y="1456" type="line"></point>
      <point x="680" y="1456" type="line"></point>
=======
  <advance width="907"></advance>
  <unicode hex="002F"></unicode>
  <outline>
    <contour>
      <point x="97" y="0" type="line"></point>
      <point x="241" y="0" type="line"></point>
      <point x="854" y="1398" type="line"></point>
      <point x="706" y="1398" type="line"></point>
>>>>>>> a682e5496193d53979a8881d15f4a58493c1359d
    </contour>
  </outline>
</glyph>
<glyph name="zero" format="1">
  <advance width="1231"></advance>
  <unicode hex="0030"></unicode>
  <outline>
    <contour>
      <point x="612" y="-20" type="curve" smooth="yes"></point>
      <point x="955" y="-20"></point>
      <point x="1095" y="259"></point>
      <point x="1095" y="703" type="curve" smooth="yes"></point>
      <point x="1095" y="1170"></point>
      <point x="939" y="1476"></point>
      <point x="612" y="1476" type="curve" smooth="yes"></point>
      <point x="285" y="1476"></point>
      <point x="119" y="1169"></point>
      <point x="119" y="703" type="curve" smooth="yes"></point>
      <point x="119" y="259"></point>
      <point x="269" y="-20"></point>
    </contour>
    <contour>
      <point x="612" y="123" type="curve" smooth="yes"></point>
      <point x="410" y="123"></point>
      <point x="284" y="282"></point>
      <point x="284" y="708" type="curve"></point>
      <point x="283" y="1114"></point>
      <point x="410" y="1334"></point>
      <point x="612" y="1334" type="curve" smooth="yes"></point>
      <point x="814" y="1334"></point>
      <point x="930" y="1143"></point>
      <point x="930" y="709" type="curve" smooth="yes"></point>
      <point x="930" y="283"></point>
      <point x="814" y="123"></point>
    </contour>
  </outline>
</glyph>
<glyph name="one" format="1">
  <advance width="1097"></advance>
  <unicode hex="0031"></unicode>
  <outline>
    <contour>
      <point x="132" y="0" type="line"></point>
      <point x="964" y="0" type="line"></point>
      <point x="964" y="123" type="line"></point>
      <point x="597" y="123" type="line"></point>
      <point x="650" y="59" type="line"></point>
      <point x="650" y="1456" type="line"></point>
      <point x="497" y="1456" type="line"></point>
      <point x="421" y="1402"></point>
      <point x="246" y="1347"></point>
      <point x="163" y="1329" type="curve"></point>
      <point x="163" y="1194" type="line"></point>
      <point x="246" y="1205"></point>
      <point x="421" y="1256"></point>
      <point x="521" y="1325" type="curve"></point>
      <point x="484" y="1357" type="line"></point>
      <point x="484" y="67" type="line"></point>
      <point x="534" y="123" type="line"></point>
      <point x="132" y="123" type="line"></point>
    </contour>
  </outline>
</glyph>
<glyph name="two" format="1">
  <advance width="1061"/>
  <unicode hex="0032"/>
  <outline>
    <contour>
      <point x="72" y="0" type="line"/>
      <point x="990" y="0" type="line"/>
      <point x="999" y="123" type="line"/>
      <point x="186" y="123" type="line"/>
      <point x="205" y="95" type="line"/>
      <point x="684" y="573" type="line" smooth="yes"/>
      <point x="876" y="765"/>
      <point x="956" y="865"/>
      <point x="956" y="1074" type="curve" smooth="yes"/>
      <point x="956" y="1385"/>
      <point x="707" y="1476"/>
      <point x="523" y="1476" type="curve" smooth="yes"/>
      <point x="257" y="1476"/>
      <point x="136" y="1355"/>
      <point x="82" y="1260" type="curve"/>
      <point x="178" y="1160" type="line"/>
      <point x="237" y="1249"/>
      <point x="340" y="1334"/>
      <point x="523" y="1334" type="curve" smooth="yes"/>
      <point x="638" y="1334"/>
      <point x="794" y="1284"/>
      <point x="794" y="1058" type="curve" smooth="yes"/>
      <point x="794" y="890"/>
      <point x="720" y="826"/>
      <point x="576" y="684" type="curve" smooth="yes"/>
      <point x="46" y="134" type="line"/>
    </contour>
  </outline>
</glyph>
<glyph name="three" format="1">
  <advance width="1037"/>
  <unicode hex="0033"/>
  <outline>
    <contour>
      <point x="517" y="-20" type="curve"/>
      <point x="824" y="-20"/>
      <point x="988" y="214"/>
      <point x="968" y="419" type="curve" smooth="yes"/>
      <point x="947" y="630"/>
      <point x="817" y="744.0"/>
      <point x="622" y="774.0" type="curve"/>
      <point x="622" y="757.0" type="line"/>
      <point x="814" y="790.0"/>
      <point x="929" y="920"/>
      <point x="929" y="1095" type="curve"/>
      <point x="929" y="1321"/>
      <point x="765" y="1476.0"/>
      <point x="500" y="1476.0" type="curve"/>
      <point x="375" y="1476.0"/>
      <point x="154" y="1433"/>
      <point x="56" y="1223" type="curve"/>
      <point x="172" y="1143.0" type="line"/>
      <point x="257" y="1304.0"/>
      <point x="401" y="1334"/>
      <point x="503" y="1334" type="curve"/>
      <point x="672" y="1334"/>
      <point x="764" y="1235"/>
      <point x="764" y="1083" type="curve"/>
      <point x="764" y="863"/>
      <point x="528" y="833"/>
      <point x="403" y="833" type="curve" smooth="yes"/>
      <point x="360" y="833.0" type="line"/>
      <point x="360" y="696.0" type="line"/>
      <point x="402" y="696" type="line" smooth="yes"/>
      <point x="626" y="696"/>
      <point x="788" y="651"/>
      <point x="801" y="412" type="curve" smooth="yes"/>
      <point x="812" y="217"/>
      <point x="676" y="128"/>
      <point x="522" y="123" type="curve" smooth="yes"/>
      <point x="425" y="120"/>
      <point x="287" y="140.0"/>
      <point x="201" y="297.0" type="curve"/>
      <point x="84" y="216.0" type="line"/>
      <point x="175" y="24.0"/>
      <point x="377" y="-24"/>
    </contour>
  </outline>
</glyph>
<glyph name="four" format="1">
  <advance width="1114"></advance>
  <unicode hex="0034"></unicode>
  <outline>
    <contour>
      <point x="214" y="513" type="line"></point>
      <point x="744" y="1245" type="line"></point>
      <point x="744" y="513" type="line"></point>
    </contour>
    <contour>
      <point x="744" y="0" type="line"></point>
      <point x="902" y="0" type="line"></point>
      <point x="902" y="377" type="line"></point>
      <point x="1089" y="377" type="line"></point>
      <point x="1101" y="513" type="line"></point>
      <point x="902" y="513" type="line"></point>
      <point x="902" y="1456" type="line"></point>
      <point x="733" y="1456" type="line"></point>
      <point x="49" y="525" type="line"></point>
      <point x="69" y="377" type="line"></point>
      <point x="744" y="377" type="line"></point>
    </contour>
  </outline>
</glyph>
<glyph name="five" format="1">
  <advance width="1114"></advance>
  <unicode hex="0035"></unicode>
  <outline>
    <contour>
      <point x="543" y="-20" type="curve" smooth="yes"></point>
      <point x="816" y="-20"></point>
      <point x="1016" y="147"></point>
      <point x="1016" y="476" type="curve" smooth="yes"></point>
      <point x="1016" y="724"></point>
      <point x="864" y="947"></point>
      <point x="582" y="947" type="curve" smooth="yes"></point>
      <point x="472" y="947"></point>
      <point x="334" y="894"></point>
      <point x="271" y="801" type="curve"></point>
      <point x="296" y="786" type="line"></point>
      <point x="320" y="1321" type="line"></point>
      <point x="934" y="1321" type="line"></point>
      <point x="947" y="1456" type="line"></point>
      <point x="179" y="1456" type="line"></point>
      <point x="151" y="696" type="line"></point>
      <point x="285" y="679" type="line"></point>
      <point x="347" y="747"></point>
      <point x="463" y="813"></point>
      <point x="561" y="813" type="curve" smooth="yes"></point>
      <point x="771" y="813"></point>
      <point x="847" y="654"></point>
      <point x="847" y="473" type="curve" smooth="yes"></point>
      <point x="847" y="247"></point>
      <point x="738" y="123"></point>
      <point x="543" y="123" type="curve" smooth="yes"></point>
      <point x="367" y="123"></point>
      <point x="257" y="224"></point>
      <point x="200" y="366" type="curve"></point>
      <point x="74" y="274" type="line"></point>
      <point x="153" y="122"></point>
      <point x="285" y="-20"></point>
    </contour>
  </outline>
</glyph>
<glyph name="six" format="1">
  <advance width="1166"></advance>
  <unicode hex="0036"></unicode>
  <outline>
    <contour>
      <point x="577" y="-20" type="curve" smooth="yes"></point>
      <point x="864" y="-20"></point>
      <point x="1046" y="179"></point>
      <point x="1046" y="426" type="curve" smooth="yes"></point>
      <point x="1046" y="681"></point>
      <point x="869" y="854"></point>
      <point x="637" y="854" type="curve" smooth="yes"></point>
      <point x="463" y="854"></point>
      <point x="357" y="760"></point>
      <point x="290" y="683" type="curve"></point>
      <point x="300" y="676" type="line"></point>
      <point x="500" y="943" type="line" smooth="yes"></point>
      <point x="846" y="1396" type="line"></point>
      <point x="657" y="1396" type="line"></point>
      <point x="322" y="960" type="line" smooth="yes"></point>
      <point x="183" y="778"></point>
      <point x="103" y="639"></point>
      <point x="103" y="429" type="curve" smooth="yes"></point>
      <point x="103" y="195"></point>
      <point x="275" y="-20"></point>
    </contour>
    <contour>
      <point x="573" y="108" type="curve" smooth="yes"></point>
      <point x="370" y="108"></point>
      <point x="262" y="254"></point>
      <point x="262" y="419" type="curve" smooth="yes"></point>
      <point x="262" y="652"></point>
      <point x="449" y="727"></point>
      <point x="579" y="727" type="curve" smooth="yes"></point>
      <point x="775" y="727"></point>
      <point x="885" y="599"></point>
      <point x="885" y="425" type="curve" smooth="yes"></point>
      <point x="885" y="258"></point>
      <point x="776" y="108"></point>
    </contour>
  </outline>
</glyph>
<glyph name="seven" format="1">
  <advance width="1102"/>
  <unicode hex="0037"/>
  <outline>
    <contour>
      <point x="271" y="0" type="line"/>
      <point x="437" y="0" type="line"/>
      <point x="987" y="1336" type="line"/>
      <point x="987" y="1456" type="line"/>
      <point x="94" y="1456" type="line"/>
      <point x="113" y="1319" type="line"/>
      <point x="813" y="1319" type="line"/>
    </contour>
  </outline>
</glyph>
<glyph name="eight" format="1">
  <advance width="1155"></advance>
  <unicode hex="0038"></unicode>
  <outline>
    <contour>
      <point x="585" y="-20" type="curve" smooth="yes"></point>
      <point x="843" y="-20"></point>
      <point x="1056" y="104"></point>
      <point x="1056" y="364" type="curve" smooth="yes"></point>
      <point x="1056" y="554"></point>
      <point x="937" y="704"></point>
      <point x="754" y="765" type="curve"></point>
      <point x="914" y="824"></point>
      <point x="1024" y="934"></point>
      <point x="1024" y="1115" type="curve" smooth="yes"></point>
      <point x="1024" y="1348"></point>
      <point x="842" y="1476"></point>
      <point x="586" y="1476" type="curve" smooth="yes"></point>
      <point x="330" y="1476"></point>
      <point x="144" y="1348"></point>
      <point x="144" y="1115" type="curve" smooth="yes"></point>
      <point x="144" y="934"></point>
      <point x="264" y="815"></point>
      <point x="419" y="763" type="curve"></point>
      <point x="227" y="695"></point>
      <point x="113" y="569"></point>
      <point x="113" y="364" type="curve" smooth="yes"></point>
      <point x="113" y="104"></point>
      <point x="329" y="-20"></point>
    </contour>
    <contour>
      <point x="585" y="111" type="curve" smooth="yes"></point>
      <point x="378" y="111"></point>
      <point x="268" y="204"></point>
      <point x="268" y="379" type="curve" smooth="yes"></point>
      <point x="268" y="558"></point>
      <point x="405" y="658"></point>
      <point x="585" y="698" type="curve"></point>
      <point x="766" y="658"></point>
      <point x="899" y="552"></point>
      <point x="899" y="380" type="curve" smooth="yes"></point>
      <point x="899" y="198"></point>
      <point x="798" y="111"></point>
    </contour>
    <contour>
      <point x="585" y="818" type="curve"></point>
      <point x="400" y="860"></point>
      <point x="304" y="960"></point>
      <point x="304" y="1120" type="curve" smooth="yes"></point>
      <point x="304" y="1265"></point>
      <point x="417" y="1350"></point>
      <point x="585" y="1350" type="curve" smooth="yes"></point>
      <point x="754" y="1350"></point>
      <point x="864" y="1265"></point>
      <point x="864" y="1120" type="curve" smooth="yes"></point>
      <point x="864" y="960"></point>
      <point x="772" y="860"></point>
    </contour>
  </outline>
</glyph>
<glyph name="nine" format="1">
  <advance width="1141"/>
  <unicode hex="0039"/>
  <outline>
    <contour>
      <point x="556" y="697" type="curve" smooth="yes"/>
      <point x="348" y="693"/>
      <point x="243" y="836"/>
      <point x="243" y="1018" type="curve" smooth="yes"/>
      <point x="243" y="1192"/>
      <point x="361" y="1344"/>
      <point x="564" y="1344" type="curve" smooth="yes"/>
      <point x="767" y="1344"/>
      <point x="879" y="1191"/>
      <point x="879" y="1019" type="curve" smooth="yes"/>
      <point x="879" y="775"/>
      <point x="686" y="700"/>
    </contour>
    <contour>
      <point x="252" y="0" type="line"/>
      <point x="448" y="0" type="line"/>
      <point x="805" y="460" type="line" smooth="yes"/>
      <point x="938" y="647"/>
      <point x="1037" y="790"/>
      <point x="1037" y="1008" type="curve" smooth="yes"/>
      <point x="1037" y="1252"/>
      <point x="865" y="1476"/>
      <point x="563" y="1476" type="curve" smooth="yes"/>
      <point x="276" y="1476"/>
      <point x="81" y="1274"/>
      <point x="81" y="1016" type="curve" smooth="yes"/>
      <point x="81" y="749"/>
      <point x="287" y="565"/>
      <point x="527" y="565" type="curve" smooth="yes"/>
      <point x="651" y="565"/>
      <point x="732" y="606"/>
      <point x="812" y="662" type="curve"/>
      <point x="790" y="684" type="line"/>
      <point x="631" y="481" type="line"/>
    </contour>
  </outline>
</glyph>
<glyph name="colon" format="1">
  <advance width="604"></advance>
  <unicode hex="003A"></unicode>
  <outline>
    <contour>
      <point x="301" y="-17" type="curve" smooth="yes"></point>
      <point x="383" y="-17"></point>
      <point x="418" y="40"></point>
      <point x="418" y="100" type="curve" smooth="yes"></point>
      <point x="418" y="158"></point>
      <point x="383" y="218"></point>
      <point x="301" y="218" type="curve" smooth="yes"></point>
      <point x="218" y="218"></point>
      <point x="180" y="158"></point>
      <point x="180" y="100" type="curve" smooth="yes"></point>
      <point x="180" y="40"></point>
      <point x="219" y="-17"></point>
    </contour>
    <contour>
      <point x="301" y="797" type="curve" smooth="yes"></point>
      <point x="383" y="797"></point>
      <point x="418" y="855"></point>
      <point x="418" y="914" type="curve" smooth="yes"></point>
      <point x="418" y="972"></point>
      <point x="383" y="1032"></point>
      <point x="301" y="1032" type="curve" smooth="yes"></point>
      <point x="218" y="1032"></point>
      <point x="180" y="972"></point>
      <point x="180" y="914" type="curve" smooth="yes"></point>
      <point x="180" y="855"></point>
      <point x="219" y="797"></point>
    </contour>
  </outline>
</glyph>
<glyph name="semicolon" format="1">
  <advance width="635"></advance>
  <unicode hex="003B"></unicode>
  <outline>
    <contour>
      <point x="329" y="837" type="curve" smooth="yes"></point>
      <point x="411" y="837"></point>
      <point x="446" y="897"></point>
      <point x="446" y="959" type="curve" smooth="yes"></point>
      <point x="446" y="1019"></point>
      <point x="411" y="1082"></point>
      <point x="329" y="1082" type="curve" smooth="yes"></point>
      <point x="246" y="1082"></point>
      <point x="208" y="1019"></point>
      <point x="208" y="959" type="curve" smooth="yes"></point>
      <point x="208" y="897"></point>
      <point x="247" y="837"></point>
    </contour>
    <contour>
      <point x="208" y="-300" type="line"></point>
      <point x="305" y="-300" type="line"></point>
      <point x="422" y="152" type="line"></point>
      <point x="422" y="235" type="line"></point>
      <point x="249" y="235" type="line"></point>
    </contour>
  </outline>
</glyph>
<glyph name="less" format="1">
  <advance width="1080"></advance>
  <unicode hex="003C"></unicode>
  <outline>
    <contour>
      <point x="982" y="127" type="line"></point>
      <point x="982" y="266" type="line"></point>
      <point x="237" y="611" type="line"></point>
      <point x="982" y="982" type="line"></point>
      <point x="982" y="1119" type="line"></point>
      <point x="52" y="650" type="line"></point>
      <point x="52" y="564" type="line"></point>
    </contour>
  </outline>
</glyph>
<glyph name="equal" format="1">
  <advance width="1037"/>
  <unicode hex="003D"/>
  <outline>
    <contour>
      <point x="107" y="409" type="line"/>
      <point x="904" y="409" type="line"/>
      <point x="904" y="556" type="line"/>
      <point x="107" y="556" type="line"/>
    </contour>
    <contour>
      <point x="107" y="792" type="line"/>
      <point x="904" y="792" type="line"/>
      <point x="904" y="939" type="line"/>
      <point x="107" y="939" type="line"/>
    </contour>
  </outline>
</glyph>
<glyph name="greater" format="1">
<<<<<<< HEAD
  <advance width="1061"></advance>
  <unicode hex="003E"></unicode>
  <outline>
    <contour>
      <point x="65" y="141" type="line"></point>
      <point x="995" y="589" type="line"></point>
      <point x="995" y="679" type="line"></point>
      <point x="67" y="1175" type="line"></point>
      <point x="67" y="1032" type="line"></point>
      <point x="802" y="640" type="line"></point>
      <point x="65" y="286" type="line"></point>
=======
  <advance width="1080"></advance>
  <unicode hex="003E"></unicode>
  <outline>
    <contour>
      <point x="76" y="133" type="line"></point>
      <point x="1006" y="563" type="line"></point>
      <point x="1006" y="649" type="line"></point>
      <point x="78" y="1125" type="line"></point>
      <point x="78" y="988" type="line"></point>
      <point x="813" y="612" type="line"></point>
      <point x="76" y="272" type="line"></point>
>>>>>>> a682e5496193d53979a8881d15f4a58493c1359d
    </contour>
  </outline>
</glyph>
<glyph name="question" format="1">
  <advance width="778"/>
  <unicode hex="003F"/>
  <outline>
    <contour>
      <point x="311" y="-13" type="curve" smooth="yes"/>
      <point x="390" y="-13"/>
      <point x="425" y="41"/>
      <point x="425" y="101" type="curve" smooth="yes"/>
      <point x="425" y="158"/>
      <point x="390" y="214"/>
      <point x="311" y="214" type="curve" smooth="yes"/>
      <point x="232" y="214"/>
      <point x="196" y="158"/>
      <point x="196" y="101" type="curve" smooth="yes"/>
      <point x="196" y="43"/>
      <point x="232" y="-13"/>
    </contour>
    <contour>
      <point x="332" y="1343" type="curve" smooth="yes"/>
      <point x="457" y="1343"/>
      <point x="530" y="1273"/>
      <point x="530" y="1127" type="curve" smooth="yes"/>
      <point x="530" y="908"/>
      <point x="281" y="731"/>
      <point x="272" y="424" type="curve"/>
      <point x="355" y="424" type="line"/>
      <point x="454" y="788"/>
      <point x="689" y="836"/>
      <point x="689" y="1132" type="curve" smooth="yes"/>
      <point x="689" y="1380"/>
      <point x="529" y="1477"/>
      <point x="350" y="1477" type="curve" smooth="yes"/>
      <point x="226" y="1477"/>
      <point x="129" y="1437"/>
      <point x="56" y="1382" type="curve"/>
      <point x="89" y="1256" type="line"/>
      <point x="131" y="1285"/>
      <point x="226" y="1343"/>
    </contour>
  </outline>
</glyph>
<glyph name="at" format="1">
  <advance width="1795"></advance>
  <unicode hex="0040"></unicode>
  <outline>
    <contour>
      <point x="877" y="-202" type="curve" smooth="yes"></point>
      <point x="1068" y="-202"></point>
      <point x="1261" y="-153"></point>
      <point x="1389" y="-65" type="curve"></point>
      <point x="1347" y="38" type="line"></point>
      <point x="1212" y="-48"></point>
      <point x="1044" y="-79"></point>
      <point x="880" y="-79" type="curve" smooth="yes"></point>
      <point x="460" y="-79"></point>
      <point x="228" y="198"></point>
      <point x="228" y="603" type="curve" smooth="yes"></point>
      <point x="228" y="1028"></point>
      <point x="502" y="1357"></point>
      <point x="937" y="1357" type="curve" smooth="yes"></point>
      <point x="1365" y="1357"></point>
      <point x="1574" y="1092"></point>
      <point x="1574" y="752" type="curve" smooth="yes"></point>
      <point x="1574" y="477"></point>
      <point x="1449" y="336"></point>
      <point x="1332" y="336" type="curve" smooth="yes"></point>
      <point x="1257" y="336"></point>
      <point x="1199" y="397"></point>
      <point x="1199" y="480" type="curve" smooth="yes"></point>
      <point x="1199" y="606"></point>
      <point x="1236" y="793"></point>
      <point x="1264" y="998" type="curve"></point>
      <point x="1178" y="1042"></point>
      <point x="1047" y="1071"></point>
      <point x="951" y="1071" type="curve" smooth="yes"></point>
      <point x="667" y="1071"></point>
      <point x="517" y="815"></point>
      <point x="517" y="565" type="curve" smooth="yes"></point>
      <point x="517" y="366"></point>
      <point x="625" y="211"></point>
      <point x="813" y="211" type="curve" smooth="yes"></point>
      <point x="954" y="211"></point>
      <point x="1046" y="321"></point>
      <point x="1095" y="429" type="curve"></point>
      <point x="1125" y="298"></point>
      <point x="1202" y="215"></point>
      <point x="1332" y="215" type="curve" smooth="yes"></point>
      <point x="1503" y="215"></point>
      <point x="1701" y="394"></point>
      <point x="1701" y="744" type="curve" smooth="yes"></point>
      <point x="1701" y="1193"></point>
      <point x="1373" y="1476"></point>
      <point x="944" y="1476" type="curve" smooth="yes"></point>
      <point x="447" y="1476"></point>
      <point x="84" y="1107"></point>
      <point x="84" y="607" type="curve" smooth="yes"></point>
      <point x="84" y="105"></point>
      <point x="408" y="-202"></point>
    </contour>
    <contour>
      <point x="830" y="326" type="curve" smooth="yes"></point>
      <point x="708" y="326"></point>
      <point x="658" y="420"></point>
      <point x="655" y="562" type="curve" smooth="yes"></point>
      <point x="650" y="794"></point>
      <point x="780" y="966"></point>
      <point x="967" y="966" type="curve" smooth="yes"></point>
      <point x="1003" y="966"></point>
      <point x="1096" y="950"></point>
      <point x="1135" y="938" type="curve"></point>
      <point x="1110" y="974" type="line"></point>
      <point x="1062" y="688" type="line"></point>
      <point x="1030" y="487"></point>
      <point x="982" y="326"></point>
    </contour>
  </outline>
</glyph>
<glyph name="A" format="1">
  <advance width="1328"></advance>
  <unicode hex="0041"></unicode>
  <outline>
    <contour>
      <point x="18" y="0" type="line"></point>
      <point x="196" y="0" type="line"></point>
      <point x="387" y="513" type="line"></point>
      <point x="325" y="462" type="line"></point>
      <point x="1005" y="462" type="line"></point>
      <point x="938" y="508" type="line"></point>
      <point x="1128" y="0" type="line"></point>
      <point x="1302" y="0" type="line"></point>
      <point x="745" y="1456" type="line"></point>
      <point x="574" y="1456" type="line"></point>
    </contour>
    <contour>
      <point x="392" y="543" type="line"></point>
      <point x="686" y="1350" type="line"></point>
      <point x="634" y="1350" type="line"></point>
      <point x="934" y="535" type="line"></point>
      <point x="974" y="587" type="line"></point>
      <point x="359" y="587" type="line"></point>
    </contour>
    <contour>
      <point x="660" y="0.0" type="move" name="bot"></point>
    </contour>
    <contour>
      <point x="1196" y="0.0" type="move" name="ogonek"></point>
    </contour>
    <contour>
      <point x="658" y="1456" type="move" name="top"></point>
    </contour>
  </outline>
</glyph>
<glyph name="B" format="1">
  <advance width="1228"/>
  <unicode hex="0042"/>
  <outline>
    <contour>
      <point x="136" y="12" type="line"/>
      <point x="909" y="-38"/>
      <point x="1150" y="48"/>
      <point x="1155" y="423" type="curve" smooth="yes"/>
      <point x="1158" y="623"/>
      <point x="1084" y="779"/>
      <point x="787" y="812" type="curve"/>
      <point x="787" y="777" type="line"/>
      <point x="1027" y="847"/>
      <point x="1093" y="954"/>
      <point x="1093" y="1099" type="curve" smooth="yes"/>
      <point x="1093" y="1255"/>
      <point x="1095" y="1543"/>
      <point x="136" y="1436" type="curve"/>
    </contour>
    <contour>
      <point x="272" y="143" type="curve"/>
      <point x="312" y="98" type="line"/>
      <point x="312" y="781" type="line"/>
      <point x="253" y="728" type="line"/>
      <point x="578" y="728" type="line" smooth="yes"/>
      <point x="860" y="728"/>
      <point x="979" y="633"/>
      <point x="979" y="422" type="curve" smooth="yes"/>
      <point x="979" y="235"/>
      <point x="923" y="98"/>
    </contour>
    <contour>
      <point x="256" y="854" type="line"/>
      <point x="312" y="809" type="line"/>
      <point x="312" y="1363" type="line"/>
      <point x="272" y="1321" type="line"/>
      <point x="828" y="1357"/>
      <point x="936" y="1296"/>
      <point x="936" y="1089" type="curve" smooth="yes"/>
      <point x="936" y="886"/>
      <point x="779" y="854"/>
      <point x="589" y="854" type="curve" smooth="yes"/>
    </contour>
    <contour>
      <point x="653" y="0" type="move" name="bot"/>
    </contour>
    <contour>
      <point x="604" y="1456" type="move" name="top"/>
    </contour>
  </outline>
</glyph>
<glyph name="C" format="1">
  <advance width="1339"></advance>
  <unicode hex="0043"></unicode>
  <outline>
    <contour>
      <point x="1096" y="353" type="line"></point>
      <point x="1061" y="224"></point>
      <point x="940" y="126"></point>
      <point x="766" y="118" type="curve" smooth="yes"></point>
      <point x="446" y="105"></point>
      <point x="299" y="315"></point>
      <point x="299" y="705" type="curve" smooth="yes"></point>
      <point x="299" y="1094"></point>
      <point x="449" y="1293"></point>
      <point x="783" y="1281" type="curve" smooth="yes"></point>
      <point x="915" y="1276"></point>
      <point x="1063" y="1186"></point>
      <point x="1095" y="1034" type="curve"></point>
      <point x="1231" y="1079" type="line"></point>
      <point x="1178" y="1322"></point>
      <point x="949" y="1412"></point>
      <point x="768" y="1418" type="curve" smooth="yes"></point>
      <point x="368" y="1431"></point>
      <point x="122" y="1166"></point>
      <point x="122" y="705" type="curve" smooth="yes"></point>
      <point x="122" y="231"></point>
      <point x="351" y="-35"></point>
      <point x="760" y="-19" type="curve" smooth="yes"></point>
      <point x="984" y="-10"></point>
      <point x="1188" y="111"></point>
      <point x="1222" y="312" type="curve"></point>
    </contour>
    <contour>
      <point x="748" y="1.0940576487" type="move" name="bot"></point>
    </contour>
    <contour>
      <point x="728" y="1397.89405765" type="move" name="top"></point>
    </contour>
  </outline>
</glyph>
<glyph name="D" format="1">
  <advance width="1425"></advance>
  <unicode hex="0044"></unicode>
  <outline>
    <contour>
      <point x="328" y="82" type="line"></point>
      <point x="328" y="1322" type="line"></point>
      <point x="288" y="1265" type="line"></point>
      <point x="919" y="1318"></point>
      <point x="1104" y="1165"></point>
      <point x="1104" y="710" type="curve" smooth="yes"></point>
      <point x="1104" y="313"></point>
      <point x="934" y="86"></point>
      <point x="288" y="141" type="curve"></point>
    </contour>
    <contour>
      <point x="152" y="11" type="line"></point>
      <point x="1063" y="-63"></point>
      <point x="1280" y="221"></point>
      <point x="1280" y="714" type="curve" smooth="yes"></point>
      <point x="1280" y="1201"></point>
      <point x="1082" y="1479"></point>
      <point x="152" y="1377" type="curve"></point>
    </contour>
    <contour>
      <point x="725" y="-0.615328210841" type="move" name="bot"></point>
    </contour>
    <contour>
      <point x="681" y="1397.85986734" type="move" name="top"></point>
    </contour>
    <contour>
      <point x="241" y="738.368671789" type="move" name="mid"></point>
    </contour>
  </outline>
</glyph>
<glyph name="E" format="1">
  <advance width="1142"></advance>
  <unicode hex="0045"></unicode>
  <outline>
    <contour>
      <point x="116" y="0" type="line"></point>
      <point x="1070" y="0" type="line"></point>
      <point x="1082" y="137" type="line"></point>
      <point x="233" y="137" type="line"></point>
      <point x="292" y="67" type="line"></point>
      <point x="292" y="741" type="line"></point>
      <point x="233" y="686" type="line"></point>
      <point x="999" y="686" type="line"></point>
      <point x="999" y="822" type="line"></point>
      <point x="233" y="822" type="line"></point>
      <point x="292" y="775" type="line"></point>
      <point x="292" y="1374" type="line"></point>
      <point x="233" y="1321" type="line"></point>
      <point x="1061" y="1321" type="line"></point>
      <point x="1067" y="1456" type="line"></point>
      <point x="116" y="1456" type="line"></point>
    </contour>
    <contour>
      <point x="793" y="0.0" type="move" name="ogonek"></point>
    </contour>
    <contour>
      <point x="623" y="0" type="move" name="bot"></point>
    </contour>
    <contour>
      <point x="646" y="1456" type="move" name="top"></point>
    </contour>
  </outline>
</glyph>
<glyph name="F" format="1">
  <advance width="1101"></advance>
  <unicode hex="0046"></unicode>
  <outline>
    <contour>
      <point x="128" y="0" type="line"></point>
      <point x="304" y="0" type="line"></point>
      <point x="304" y="718" type="line"></point>
      <point x="222" y="666" type="line"></point>
      <point x="986" y="666" type="line"></point>
      <point x="986" y="797" type="line"></point>
      <point x="229" y="797" type="line"></point>
      <point x="304" y="748" type="line"></point>
      <point x="304" y="1385" type="line"></point>
      <point x="229" y="1318" type="line"></point>
      <point x="1081" y="1318" type="line"></point>
      <point x="1091" y="1456" type="line"></point>
      <point x="128" y="1456" type="line"></point>
    </contour>
    <contour>
      <point x="661" y="1456" type="move" name="top"></point>
    </contour>
  </outline>
</glyph>
<glyph name="G" format="1">
  <advance width="1382"></advance>
  <unicode hex="0047"></unicode>
  <outline>
    <contour>
      <point x="779" y="-20" type="curve" smooth="yes"></point>
      <point x="975" y="-20"></point>
      <point x="1100" y="13"></point>
      <point x="1247" y="68" type="curve"></point>
      <point x="1247" y="733" type="line"></point>
      <point x="796" y="733" type="line"></point>
      <point x="788" y="608" type="line"></point>
      <point x="1132" y="595" type="line"></point>
      <point x="1084" y="648" type="line"></point>
      <point x="1084" y="103" type="line"></point>
      <point x="1144" y="175" type="line"></point>
      <point x="1076" y="154"></point>
      <point x="989" y="117"></point>
      <point x="810" y="117" type="curve" smooth="yes"></point>
      <point x="425" y="117"></point>
      <point x="292" y="353"></point>
      <point x="292" y="708" type="curve" smooth="yes"></point>
      <point x="292" y="1046"></point>
      <point x="469" y="1280"></point>
      <point x="811" y="1280" type="curve" smooth="yes"></point>
      <point x="1001" y="1280"></point>
      <point x="1090" y="1205"></point>
      <point x="1154" y="1140" type="curve"></point>
      <point x="1245" y="1241" type="line"></point>
      <point x="1163" y="1343"></point>
      <point x="1019" y="1416"></point>
      <point x="808" y="1416" type="curve" smooth="yes"></point>
      <point x="369" y="1416"></point>
      <point x="115" y="1128"></point>
      <point x="115" y="707" type="curve" smooth="yes"></point>
      <point x="115" y="290"></point>
      <point x="330" y="-20"></point>
    </contour>
    <contour>
      <point x="818" y="0.6" type="move" name="bot"></point>
    </contour>
    <contour>
      <point x="820" y="1397.88" type="move" name="top"></point>
    </contour>
  </outline>
</glyph>
<glyph name="H" format="1">
  <advance width="1373"/>
  <unicode hex="0048"/>
  <outline>
    <contour>
      <point x="136" y="0" type="line"/>
      <point x="312" y="0" type="line"/>
      <point x="312" y="723" type="line"/>
      <point x="252" y="678" type="line"/>
      <point x="1112" y="678" type="line"/>
      <point x="1061" y="723" type="line"/>
      <point x="1061" y="0" type="line"/>
      <point x="1237" y="0" type="line"/>
      <point x="1237" y="1456" type="line"/>
      <point x="1061" y="1456" type="line"/>
      <point x="1061" y="780" type="line"/>
      <point x="1111" y="820" type="line"/>
      <point x="247" y="820" type="line"/>
      <point x="312" y="780" type="line"/>
      <point x="312" y="1456" type="line"/>
      <point x="136" y="1456" type="line"/>
    </contour>
    <contour>
      <point x="697" y="1456" type="move" name="top"/>
    </contour>
    <contour>
      <point x="694" y="1206" type="move" name="mid"/>
    </contour>
  </outline>
</glyph>
<glyph name="I" format="1">
<<<<<<< HEAD
  <advance width="857"></advance>
  <unicode hex="0049"></unicode>
  <outline>
    <contour>
      <point x="135" y="1456" type="line"></point>
      <point x="135" y="1347" type="line"></point>
      <point x="367" y="1347" type="line"></point>
      <point x="327" y="1401" type="line"></point>
      <point x="327" y="58" type="line"></point>
      <point x="367" y="110" type="line"></point>
      <point x="135" y="110" type="line"></point>
      <point x="135" y="0" type="line"></point>
      <point x="693" y="0" type="line"></point>
      <point x="693" y="110" type="line"></point>
      <point x="463" y="110" type="line"></point>
      <point x="503" y="56" type="line"></point>
      <point x="503" y="1402" type="line"></point>
      <point x="463" y="1347" type="line"></point>
      <point x="693" y="1347" type="line"></point>
      <point x="693" y="1456" type="line"></point>
    </contour>
    <contour>
      <point x="416" y="0.0" type="move" name="bot"></point>
    </contour>
    <contour>
      <point x="415" y="1456" type="move" name="top"></point>
=======
  <advance width="907"></advance>
  <unicode hex="0049"></unicode>
  <outline>
    <contour>
      <point x="170" y="1398" type="line"></point>
      <point x="170" y="1293" type="line"></point>
      <point x="402" y="1293" type="line"></point>
      <point x="362" y="1345" type="line"></point>
      <point x="362" y="56" type="line"></point>
      <point x="402" y="106" type="line"></point>
      <point x="170" y="106" type="line"></point>
      <point x="170" y="0" type="line"></point>
      <point x="728" y="0" type="line"></point>
      <point x="728" y="106" type="line"></point>
      <point x="498" y="106" type="line"></point>
      <point x="538" y="54" type="line"></point>
      <point x="538" y="1346" type="line"></point>
      <point x="498" y="1293" type="line"></point>
      <point x="728" y="1293" type="line"></point>
      <point x="728" y="1398" type="line"></point>
    </contour>
    <contour>
      <point x="451" y="0.12" type="move" name="bot"></point>
    </contour>
    <contour>
      <point x="450" y="1397.88" type="move" name="top"></point>
>>>>>>> a682e5496193d53979a8881d15f4a58493c1359d
    </contour>
  </outline>
</glyph>
<glyph name="J" format="1">
  <advance width="734"/>
  <unicode hex="004A"/>
  <outline>
    <contour>
      <point x="147" y="-168" type="line" smooth="yes"/>
      <point x="472" y="-133"/>
      <point x="582" y="0"/>
      <point x="582" y="308" type="curve" smooth="yes"/>
      <point x="582" y="1456" type="line"/>
      <point x="406" y="1456" type="line"/>
      <point x="406" y="282" type="line" smooth="yes"/>
      <point x="406" y="84"/>
      <point x="341" y="13"/>
      <point x="135" y="-19" type="curve" smooth="yes"/>
      <point x="55" y="-31" type="line"/>
      <point x="71" y="-176" type="line"/>
    </contour>
    <contour>
      <point x="499" y="1456" type="move" name="top"/>
    </contour>
  </outline>
</glyph>
<glyph name="K" format="1">
<<<<<<< HEAD
  <advance width="1265"></advance>
  <unicode hex="004B"></unicode>
  <outline>
    <contour>
      <point x="122" y="0" type="line"></point>
      <point x="298" y="0" type="line"></point>
      <point x="298" y="650" type="line"></point>
      <point x="252" y="539" type="line"></point>
      <point x="518" y="787" type="line"></point>
      <point x="446" y="786" type="line"></point>
      <point x="1048" y="0" type="line"></point>
      <point x="1254" y="0" type="line"></point>
      <point x="563" y="896" type="line"></point>
      <point x="563" y="800" type="line"></point>
      <point x="1224" y="1456" type="line"></point>
      <point x="1018" y="1456" type="line"></point>
      <point x="246" y="696" type="line"></point>
      <point x="298" y="695" type="line"></point>
      <point x="298" y="1456" type="line"></point>
      <point x="122" y="1456" type="line"></point>
    </contour>
    <contour>
      <point x="599" y="0.0" type="move" name="bot"></point>
    </contour>
    <contour>
      <point x="596" y="1456" type="move" name="top"></point>
=======
  <advance width="1339"></advance>
  <unicode hex="004B"></unicode>
  <outline>
    <contour>
      <point x="152" y="0" type="line"></point>
      <point x="328" y="0" type="line"></point>
      <point x="328" y="624" type="line"></point>
      <point x="282" y="518" type="line"></point>
      <point x="548" y="756" type="line"></point>
      <point x="476" y="755" type="line"></point>
      <point x="1078" y="0" type="line"></point>
      <point x="1284" y="0" type="line"></point>
      <point x="593" y="860" type="line"></point>
      <point x="593" y="768" type="line"></point>
      <point x="1254" y="1398" type="line"></point>
      <point x="1048" y="1398" type="line"></point>
      <point x="276" y="668" type="line"></point>
      <point x="328" y="667" type="line"></point>
      <point x="328" y="1398" type="line"></point>
      <point x="152" y="1398" type="line"></point>
    </contour>
    <contour>
      <point x="629" y="0.12" type="move" name="bot"></point>
    </contour>
    <contour>
      <point x="626" y="1397.88" type="move" name="top"></point>
>>>>>>> a682e5496193d53979a8881d15f4a58493c1359d
    </contour>
  </outline>
</glyph>
<glyph name="L" format="1">
  <advance width="1061"/>
  <unicode hex="004C"/>
  <outline>
    <contour>
      <point x="128" y="0" type="line"/>
      <point x="1010" y="0" type="line"/>
      <point x="1014" y="137" type="line"/>
      <point x="234" y="137" type="line"/>
      <point x="304" y="72" type="line"/>
      <point x="304" y="1456" type="line"/>
      <point x="128" y="1456" type="line"/>
    </contour>
    <contour>
      <point x="565" y="0.0" type="move" name="bot"/>
    </contour>
    <contour>
      <point x="679" y="849.725" type="move" name="mid"/>
    </contour>
    <contour>
      <point x="372" y="1456" type="move" name="top"/>
    </contour>
    <contour>
      <point x="218" y="795.4" type="move" name="mid2"/>
    </contour>
  </outline>
</glyph>
<glyph name="M" format="1">
  <advance width="1700"></advance>
  <unicode hex="004D"></unicode>
  <outline>
    <contour>
      <point x="119" y="0" type="line"></point>
      <point x="285" y="0" type="line"></point>
      <point x="311" y="924" type="line"></point>
      <point x="311" y="1314" type="line"></point>
      <point x="281" y="1304" type="line"></point>
      <point x="771" y="167" type="line"></point>
      <point x="922" y="167" type="line"></point>
      <point x="1421" y="1303" type="line"></point>
      <point x="1385" y="1315" type="line"></point>
      <point x="1385" y="928" type="line"></point>
      <point x="1411" y="0" type="line"></point>
      <point x="1575" y="0" type="line"></point>
      <point x="1534" y="1456" type="line"></point>
      <point x="1324" y="1456" type="line"></point>
      <point x="826" y="318" type="line"></point>
      <point x="870" y="318" type="line"></point>
      <point x="376" y="1456" type="line"></point>
      <point x="160" y="1456" type="line"></point>
    </contour>
    <contour>
      <point x="862" y="1456" type="move" name="top"></point>
    </contour>
  </outline>
</glyph>
<glyph name="N" format="1">
  <advance width="1346"/>
  <unicode hex="004E"/>
  <outline>
    <contour>
      <point x="135" y="0" type="line"/>
      <point x="298" y="0" type="line"/>
      <point x="298" y="761" type="line"/>
      <point x="279" y="1312" type="line"/>
      <point x="237" y="1298" type="line"/>
      <point x="1055" y="0" type="line"/>
      <point x="1236" y="0" type="line"/>
      <point x="1236" y="1456" type="line"/>
      <point x="1074" y="1456" type="line"/>
      <point x="1074" y="644" type="line"/>
      <point x="1086" y="145" type="line"/>
      <point x="1121" y="160" type="line"/>
      <point x="309" y="1456" type="line"/>
      <point x="135" y="1456" type="line"/>
    </contour>
    <contour>
      <point x="720" y="1456" type="move" name="top"/>
    </contour>
  </outline>
</glyph>
<glyph name="O" format="1">
<<<<<<< HEAD
  <advance width="1469"></advance>
  <unicode hex="004F"></unicode>
  <outline>
    <contour>
      <point x="733" y="122" type="curve" smooth="yes"></point>
      <point x="383" y="122"></point>
      <point x="261" y="365"></point>
      <point x="261" y="720" type="curve" smooth="yes"></point>
      <point x="261" y="1091"></point>
      <point x="395" y="1334"></point>
      <point x="735" y="1334" type="curve" smooth="yes"></point>
      <point x="1076" y="1334"></point>
      <point x="1204" y="1089"></point>
      <point x="1204" y="720" type="curve" smooth="yes"></point>
      <point x="1204" y="365"></point>
      <point x="1083" y="122"></point>
    </contour>
    <contour>
      <point x="735" y="-20" type="curve" smooth="yes"></point>
      <point x="1177" y="-20"></point>
      <point x="1380" y="275"></point>
      <point x="1380" y="718" type="curve" smooth="yes"></point>
      <point x="1380" y="1181"></point>
      <point x="1165" y="1476"></point>
      <point x="736" y="1476" type="curve" smooth="yes"></point>
      <point x="298" y="1476"></point>
      <point x="84" y="1184"></point>
      <point x="84" y="721" type="curve" smooth="yes"></point>
      <point x="84" y="269"></point>
      <point x="288" y="-20"></point>
    </contour>
    <contour>
      <point x="735" y="0.5" type="move" name="bot"></point>
    </contour>
    <contour>
      <point x="736" y="1456" type="move" name="top"></point>
=======
  <advance width="1555"></advance>
  <unicode hex="004F"></unicode>
  <outline>
    <contour>
      <point x="764" y="116" type="curve" smooth="yes"></point>
      <point x="414" y="116"></point>
      <point x="292" y="350"></point>
      <point x="292" y="690" type="curve" smooth="yes"></point>
      <point x="292" y="1046"></point>
      <point x="426" y="1280"></point>
      <point x="766" y="1280" type="curve" smooth="yes"></point>
      <point x="1107" y="1280"></point>
      <point x="1235" y="1045"></point>
      <point x="1235" y="690" type="curve" smooth="yes"></point>
      <point x="1235" y="350"></point>
      <point x="1114" y="116"></point>
    </contour>
    <contour>
      <point x="766" y="-20" type="curve" smooth="yes"></point>
      <point x="1208" y="-20"></point>
      <point x="1411" y="263"></point>
      <point x="1411" y="688" type="curve" smooth="yes"></point>
      <point x="1411" y="1133"></point>
      <point x="1196" y="1416"></point>
      <point x="767" y="1416" type="curve" smooth="yes"></point>
      <point x="329" y="1416"></point>
      <point x="115" y="1136"></point>
      <point x="115" y="691" type="curve" smooth="yes"></point>
      <point x="115" y="257"></point>
      <point x="319" y="-20"></point>
    </contour>
    <contour>
      <point x="766" y="0.6" type="move" name="bot"></point>
    </contour>
    <contour>
      <point x="767" y="1397.88" type="move" name="top"></point>
>>>>>>> a682e5496193d53979a8881d15f4a58493c1359d
    </contour>
  </outline>
</glyph>
<glyph name="P" format="1">
  <advance width="1252"></advance>
  <unicode hex="0050"></unicode>
  <outline>
    <contour>
      <point x="158" y="0" type="line"></point>
      <point x="334" y="0" type="line"></point>
      <point x="334" y="651" type="line"></point>
      <point x="274" y="614" type="line"></point>
      <point x="965" y="581"></point>
      <point x="1135" y="776"></point>
      <point x="1135" y="1025" type="curve" smooth="yes"></point>
      <point x="1135" y="1347"></point>
      <point x="913" y="1430"></point>
      <point x="158" y="1387" type="curve"></point>
    </contour>
    <contour>
      <point x="274" y="1263" type="line"></point>
      <point x="825" y="1298"></point>
      <point x="959" y="1239"></point>
      <point x="959" y="1023" type="curve" smooth="yes"></point>
      <point x="959" y="833"></point>
      <point x="848" y="714"></point>
      <point x="274" y="747" type="curve"></point>
      <point x="334" y="702" type="line"></point>
      <point x="334" y="1317" type="line"></point>
    </contour>
    <contour>
      <point x="640" y="1397.8730136" type="move" name="top"></point>
    </contour>
  </outline>
</glyph>
<glyph name="Q" format="1">
  <advance width="1504"/>
  <unicode hex="0051"/>
  <outline>
    <contour>
      <point x="1098" y="-431" type="line"/>
      <point x="1211" y="-352" type="line"/>
      <point x="961" y="10" type="line"/>
      <point x="1250" y="95"/>
      <point x="1384" y="358"/>
      <point x="1384" y="718" type="curve" smooth="yes"/>
      <point x="1384" y="1181"/>
      <point x="1169" y="1476"/>
      <point x="740" y="1476" type="curve" smooth="yes"/>
      <point x="302" y="1476"/>
      <point x="88" y="1184"/>
      <point x="88" y="721" type="curve" smooth="yes"/>
      <point x="88" y="269"/>
      <point x="292" y="-20"/>
      <point x="739" y="-20" type="curve" smooth="yes"/>
      <point x="764" y="-20"/>
      <point x="788" y="-19"/>
      <point x="812" y="-17" type="curve"/>
    </contour>
    <contour>
      <point x="737" y="122" type="curve" smooth="yes"/>
      <point x="387" y="122"/>
      <point x="265" y="365"/>
      <point x="265" y="720" type="curve" smooth="yes"/>
      <point x="265" y="1091"/>
      <point x="399" y="1334"/>
      <point x="739" y="1334" type="curve" smooth="yes"/>
      <point x="1080" y="1334"/>
      <point x="1208" y="1089"/>
      <point x="1208" y="720" type="curve" smooth="yes"/>
      <point x="1208" y="365"/>
      <point x="1087" y="122"/>
    </contour>
  </outline>
</glyph>
<glyph name="R" format="1">
  <advance width="1245"/>
  <unicode hex="0052"/>
  <outline>
    <contour>
      <point x="126" y="0" type="line"/>
      <point x="302" y="0" type="line"/>
      <point x="302" y="728" type="line"/>
      <point x="252" y="674" type="line"/>
      <point x="386" y="661"/>
      <point x="568" y="662"/>
      <point x="694" y="669" type="curve"/>
      <point x="635" y="709" type="line"/>
      <point x="992" y="0" type="line"/>
      <point x="1189" y="0" type="line"/>
      <point x="808" y="729" type="line"/>
      <point x="785" y="691" type="line"/>
      <point x="1016" y="735"/>
      <point x="1149" y="850"/>
      <point x="1144" y="1086" type="curve" smooth="yes"/>
      <point x="1138" y="1346"/>
      <point x="983" y="1456"/>
      <point x="529" y="1456" type="curve" smooth="yes"/>
      <point x="389" y="1456"/>
      <point x="259" y="1447"/>
      <point x="126" y="1432" type="curve"/>
    </contour>
    <contour>
      <point x="252" y="1316" type="line"/>
      <point x="281" y="1320"/>
      <point x="472" y="1328"/>
      <point x="540" y="1328" type="curve"/>
      <point x="886" y="1328"/>
      <point x="981" y="1254"/>
      <point x="982" y="1077" type="curve" smooth="yes"/>
      <point x="984" y="816"/>
      <point x="799" y="771"/>
      <point x="252" y="802" type="curve"/>
      <point x="302" y="755" type="line"/>
      <point x="302" y="1368" type="line"/>
    </contour>
    <contour>
      <point x="633" y="0.0" type="move" name="bot"/>
    </contour>
    <contour>
      <point x="624" y="1456" type="move" name="top"/>
    </contour>
  </outline>
</glyph>
<glyph name="S" format="1">
<<<<<<< HEAD
  <advance width="1142"></advance>
  <unicode hex="0053"></unicode>
  <outline>
    <contour>
      <point x="1046" y="374.0" type="curve" smooth="yes"></point>
      <point x="1049" y="709.0"></point>
      <point x="830" y="734.0"></point>
      <point x="445" y="892.0" type="curve" smooth="yes"></point>
      <point x="313" y="945.0"></point>
      <point x="234" y="983.0"></point>
      <point x="245" y="1120.0" type="curve" smooth="yes"></point>
      <point x="259" y="1297.0"></point>
      <point x="393" y="1331"></point>
      <point x="567" y="1334.0" type="curve" smooth="yes"></point>
      <point x="718" y="1337"></point>
      <point x="854" y="1280"></point>
      <point x="922" y="1194" type="curve"></point>
      <point x="1020" y="1289" type="line"></point>
      <point x="920" y="1425"></point>
      <point x="737" y="1478"></point>
      <point x="561" y="1476.0" type="curve" smooth="yes"></point>
      <point x="318" y="1473"></point>
      <point x="90" y="1399.0"></point>
      <point x="72" y="1121.0" type="curve" smooth="yes"></point>
      <point x="52" y="819.0"></point>
      <point x="252" y="800.0"></point>
      <point x="612" y="651.0" type="curve" smooth="yes"></point>
      <point x="783" y="580.0"></point>
      <point x="886" y="529.0"></point>
      <point x="881" y="369.0" type="curve" smooth="yes"></point>
      <point x="875" y="184.0"></point>
      <point x="729" y="123.0"></point>
      <point x="544" y="123.0" type="curve" smooth="yes"></point>
      <point x="435" y="123.0"></point>
      <point x="267" y="159.0"></point>
      <point x="170" y="262.0" type="curve"></point>
      <point x="65" y="164" type="line"></point>
      <point x="147" y="66"></point>
      <point x="321" y="-20.0"></point>
      <point x="547" y="-20.0" type="curve" smooth="yes"></point>
      <point x="782" y="-20.0"></point>
      <point x="1043" y="72.0"></point>
    </contour>
    <contour>
      <point x="574" y="0" type="move" name="bot"></point>
    </contour>
    <contour>
      <point x="569" y="1476" type="move" name="top"></point>
=======
  <advance width="1209"></advance>
  <unicode hex="0053"></unicode>
  <outline>
    <contour>
      <point x="1079" y="358" type="curve" smooth="yes"></point>
      <point x="1082" y="680"></point>
      <point x="863" y="704"></point>
      <point x="478" y="855" type="curve" smooth="yes"></point>
      <point x="346" y="906"></point>
      <point x="267" y="943"></point>
      <point x="278" y="1074" type="curve" smooth="yes"></point>
      <point x="292" y="1244"></point>
      <point x="426" y="1277"></point>
      <point x="600" y="1280" type="curve" smooth="yes"></point>
      <point x="751" y="1283"></point>
      <point x="887" y="1228"></point>
      <point x="955" y="1145" type="curve"></point>
      <point x="1053" y="1237" type="line"></point>
      <point x="953" y="1367"></point>
      <point x="770" y="1418"></point>
      <point x="594" y="1416" type="curve" smooth="yes"></point>
      <point x="351" y="1413"></point>
      <point x="123" y="1342"></point>
      <point x="105" y="1075" type="curve" smooth="yes"></point>
      <point x="85" y="785"></point>
      <point x="285" y="767"></point>
      <point x="645" y="624" type="curve" smooth="yes"></point>
      <point x="816" y="556"></point>
      <point x="919" y="507"></point>
      <point x="914" y="353" type="curve" smooth="yes"></point>
      <point x="908" y="176"></point>
      <point x="762" y="116"></point>
      <point x="577" y="116" type="curve" smooth="yes"></point>
      <point x="468" y="116"></point>
      <point x="300" y="152"></point>
      <point x="203" y="251" type="curve"></point>
      <point x="98" y="157" type="line"></point>
      <point x="180" y="62"></point>
      <point x="354" y="-20"></point>
      <point x="580" y="-20" type="curve" smooth="yes"></point>
      <point x="815" y="-20"></point>
      <point x="1076" y="68"></point>
    </contour>
    <contour>
      <point x="607" y="0.121087566353" type="move" name="bot"></point>
    </contour>
    <contour>
      <point x="602" y="1417.08108757" type="move" name="top"></point>
>>>>>>> a682e5496193d53979a8881d15f4a58493c1359d
    </contour>
  </outline>
</glyph>
<glyph name="T" format="1">
  <advance width="1152"/>
  <unicode hex="0054"/>
  <outline>
    <contour>
      <point x="487" y="0" type="line"/>
      <point x="663" y="0" type="line"/>
      <point x="663" y="1387" type="line"/>
      <point x="604" y="1319" type="line"/>
      <point x="1142" y="1319" type="line"/>
      <point x="1142" y="1456" type="line"/>
      <point x="10" y="1456" type="line"/>
      <point x="10" y="1319" type="line"/>
      <point x="541" y="1319" type="line"/>
      <point x="487" y="1384" type="line"/>
    </contour>
    <contour>
      <point x="580" y="0" type="move" name="bot"/>
    </contour>
    <contour>
      <point x="579" y="1456" type="move" name="top"/>
    </contour>
    <contour>
      <point x="572" y="785" type="move" name="mid"/>
    </contour>
  </outline>
</glyph>
<glyph name="U" format="1">
<<<<<<< HEAD
  <advance width="1305"></advance>
  <unicode hex="0055"></unicode>
  <outline>
    <contour>
      <point x="657" y="-20" type="curve" smooth="yes"></point>
      <point x="1041" y="-20"></point>
      <point x="1205" y="217"></point>
      <point x="1205" y="540" type="curve" smooth="yes"></point>
      <point x="1205" y="1457" type="line"></point>
      <point x="1029" y="1457" type="line"></point>
      <point x="1029" y="546" type="line" smooth="yes"></point>
      <point x="1029" y="271"></point>
      <point x="920" y="123"></point>
      <point x="657" y="123" type="curve" smooth="yes"></point>
      <point x="385" y="123"></point>
      <point x="285" y="271"></point>
      <point x="285" y="546" type="curve" smooth="yes"></point>
      <point x="285" y="1457" type="line"></point>
      <point x="109" y="1457" type="line"></point>
      <point x="109" y="543" type="line" smooth="yes"></point>
      <point x="109" y="211"></point>
      <point x="269" y="-20"></point>
    </contour>
    <contour>
      <point x="802" y="21.0" type="move" name="ogonek"></point>
    </contour>
    <contour>
      <point x="654" y="0.5" type="move" name="bot"></point>
    </contour>
    <contour>
      <point x="669" y="1456" type="move" name="top"></point>
=======
  <advance width="1382"></advance>
  <unicode hex="0055"></unicode>
  <outline>
    <contour>
      <point x="688" y="-20" type="curve" smooth="yes"></point>
      <point x="1072" y="-20"></point>
      <point x="1236" y="207"></point>
      <point x="1236" y="517" type="curve" smooth="yes"></point>
      <point x="1236" y="1398" type="line"></point>
      <point x="1060" y="1398" type="line"></point>
      <point x="1060" y="523" type="line" smooth="yes"></point>
      <point x="1060" y="259"></point>
      <point x="951" y="116"></point>
      <point x="688" y="116" type="curve" smooth="yes"></point>
      <point x="416" y="116"></point>
      <point x="316" y="259"></point>
      <point x="316" y="523" type="curve" smooth="yes"></point>
      <point x="316" y="1398" type="line"></point>
      <point x="140" y="1398" type="line"></point>
      <point x="140" y="520" type="line" smooth="yes"></point>
      <point x="140" y="201"></point>
      <point x="300" y="-20"></point>
    </contour>
    <contour>
      <point x="833" y="19.9" type="move" name="ogonek"></point>
    </contour>
    <contour>
      <point x="685" y="0.22" type="move" name="bot"></point>
    </contour>
    <contour>
      <point x="700" y="1397.5" type="move" name="top"></point>
>>>>>>> a682e5496193d53979a8881d15f4a58493c1359d
    </contour>
  </outline>
</glyph>
<glyph name="V" format="1">
  <advance width="1166"></advance>
  <unicode hex="0056"></unicode>
  <outline>
    <contour>
      <point x="490" y="0" type="line"></point>
      <point x="644" y="0" type="line"></point>
      <point x="1193" y="1398" type="line"></point>
      <point x="1012" y="1398" type="line"></point>
      <point x="704" y="574" type="line"></point>
      <point x="544" y="144" type="line"></point>
      <point x="591" y="144" type="line"></point>
      <point x="432" y="575" type="line"></point>
      <point x="123" y="1398" type="line"></point>
      <point x="-43" y="1398" type="line"></point>
    </contour>
  </outline>
</glyph>
<glyph name="W" format="1">
  <advance width="1617"></advance>
  <unicode hex="0057"></unicode>
  <outline>
    <contour>
      <point x="297" y="0" type="line"></point>
      <point x="464" y="0" type="line"></point>
      <point x="833" y="1303" type="line"></point>
      <point x="780" y="1303" type="line"></point>
      <point x="1135" y="0" type="line"></point>
      <point x="1306" y="0" type="line"></point>
      <point x="1639" y="1456" type="line"></point>
      <point x="1469" y="1456" type="line"></point>
      <point x="1206" y="166" type="line"></point>
      <point x="1236" y="166" type="line"></point>
      <point x="889" y="1425" type="line"></point>
      <point x="719" y="1425" type="line"></point>
      <point x="367" y="167" type="line"></point>
      <point x="397" y="167" type="line"></point>
      <point x="119" y="1456" type="line"></point>
      <point x="-45" y="1456" type="line"></point>
    </contour>
    <contour>
      <point x="803" y="0.0" type="move" name="bot"></point>
    </contour>
    <contour>
      <point x="806" y="1456" type="move" name="top"></point>
    </contour>
  </outline>
</glyph>
<glyph name="X" format="1">
  <advance width="1212"></advance>
  <unicode hex="0058"></unicode>
  <outline>
    <contour>
      <point x="18" y="0.0" type="line"></point>
      <point x="202" y="0.0" type="line"></point>
      <point x="604" y="604.0" type="line"></point>
      <point x="690" y="710.0" type="line"></point>
      <point x="1181" y="1456.0" type="line"></point>
      <point x="993" y="1456.0" type="line"></point>
      <point x="602" y="853.0" type="line"></point>
      <point x="512" y="750.0" type="line"></point>
    </contour>
    <contour>
      <point x="989" y="0.0" type="line"></point>
      <point x="1188" y="0.0" type="line"></point>
      <point x="219" y="1456.0" type="line"></point>
      <point x="19" y="1456.0" type="line"></point>
    </contour>
  </outline>
</glyph>
<glyph name="Y" format="1">
  <advance width="1055"></advance>
  <unicode hex="0059"></unicode>
  <outline>
    <contour>
      <point x="441" y="0" type="line"></point>
      <point x="617" y="0" type="line"></point>
      <point x="617" y="566" type="line"></point>
      <point x="582" y="443" type="line"></point>
      <point x="1126" y="1456" type="line"></point>
      <point x="952" y="1456" type="line"></point>
      <point x="501" y="608" type="line"></point>
      <point x="557" y="608" type="line"></point>
      <point x="90" y="1456" type="line"></point>
      <point x="-77" y="1456" type="line"></point>
      <point x="480" y="441" type="line"></point>
      <point x="441" y="568" type="line"></point>
    </contour>
    <contour>
      <point x="528" y="1456" type="move" name="top"></point>
    </contour>
  </outline>
</glyph>
<glyph name="Z" format="1">
  <advance width="1089"></advance>
  <unicode hex="005A"></unicode>
  <outline>
    <contour>
      <point x="37" y="0" type="line"></point>
      <point x="1065" y="0" type="line"></point>
      <point x="1073" y="137" type="line"></point>
      <point x="178" y="137" type="line"></point>
      <point x="202" y="86" type="line"></point>
      <point x="1066" y="1332" type="line"></point>
      <point x="1059" y="1456" type="line"></point>
      <point x="70" y="1456" type="line"></point>
      <point x="70" y="1321" type="line"></point>
      <point x="937" y="1321" type="line"></point>
      <point x="908" y="1378" type="line"></point>
      <point x="37" y="127" type="line"></point>
    </contour>
    <contour>
      <point x="601" y="0" type="move" name="bot"></point>
    </contour>
    <contour>
      <point x="615" y="1456" type="move" name="top"></point>
    </contour>
  </outline>
</glyph>
<glyph name="bracketleft" format="1">
<<<<<<< HEAD
  <advance width="693"></advance>
  <unicode hex="005B"></unicode>
  <outline>
    <contour>
      <point x="154" y="-255" type="line"></point>
      <point x="154" y="1476" type="line"></point>
      <point x="618" y="1476" type="line"></point>
      <point x="618" y="1355" type="line"></point>
      <point x="330" y="1355" type="line"></point>
      <point x="330" y="-135" type="line"></point>
      <point x="618" y="-135" type="line"></point>
      <point x="618" y="-255" type="line"></point>
=======
  <advance width="777"></advance>
  <unicode hex="005B"></unicode>
  <outline>
    <contour>
      <point x="183" y="-249" type="line"></point>
      <point x="183" y="1416" type="line"></point>
      <point x="647" y="1416" type="line"></point>
      <point x="647" y="1300" type="line"></point>
      <point x="359" y="1300" type="line"></point>
      <point x="359" y="-134" type="line"></point>
      <point x="647" y="-134" type="line"></point>
      <point x="647" y="-249" type="line"></point>
>>>>>>> a682e5496193d53979a8881d15f4a58493c1359d
    </contour>
  </outline>
</glyph>
<glyph name="backslash" format="1">
<<<<<<< HEAD
  <advance width="816"></advance>
  <unicode hex="005C"></unicode>
  <outline>
    <contour>
      <point x="577" y="-20" type="line"></point>
      <point x="33" y="1476" type="line"></point>
      <point x="164" y="1476" type="line"></point>
      <point x="707" y="-20" type="line"></point>
=======
  <advance width="864"></advance>
  <unicode hex="005C"></unicode>
  <outline>
    <contour>
      <point x="610" y="-20" type="line"></point>
      <point x="66" y="1416" type="line"></point>
      <point x="197" y="1416" type="line"></point>
      <point x="740" y="-20" type="line"></point>
>>>>>>> a682e5496193d53979a8881d15f4a58493c1359d
    </contour>
  </outline>
</glyph>
<glyph name="bracketright" format="1">
  <advance width="830"/>
  <unicode hex="005D"/>
  <outline>
    <contour>
      <point x="228" y="-255" type="line"/>
      <point x="228" y="-135" type="line"/>
      <point x="516" y="-135" type="line"/>
      <point x="516" y="1355" type="line"/>
      <point x="228" y="1355" type="line"/>
      <point x="228" y="1476" type="line"/>
      <point x="692" y="1476" type="line"/>
      <point x="692" y="-255" type="line"/>
    </contour>
  </outline>
</glyph>
<glyph name="asciicircum" format="1">
  <advance width="857"></advance>
  <unicode hex="005E"></unicode>
  <unicode hex="0302"></unicode>
  <outline>
    <contour>
      <point x="167" y="1074" type="line"></point>
      <point x="278" y="1074" type="line"></point>
      <point x="436" y="1355" type="line"></point>
      <point x="590" y="1074" type="line"></point>
      <point x="702" y="1074" type="line"></point>
      <point x="534" y="1456" type="line"></point>
      <point x="347" y="1456" type="line"></point>
    </contour>
  </outline>
</glyph>
<glyph name="underscore" format="1">
  <advance width="1080"></advance>
  <unicode hex="005F"></unicode>
  <outline>
    <contour>
      <point x="229" y="-287" type="line"></point>
      <point x="1125" y="-287" type="line"></point>
      <point x="1125" y="-169" type="line"></point>
      <point x="229" y="-169" type="line"></point>
    </contour>
  </outline>
</glyph>
<glyph name="grave" format="1">
<<<<<<< HEAD
  <advance width="775"></advance>
  <unicode hex="0060"></unicode>
  <outline>
    <contour>
      <point x="494" y="1044" type="line"></point>
      <point x="588" y="1044" type="line"></point>
      <point x="412" y="1456" type="line"></point>
      <point x="224" y="1456" type="line"></point>
    </contour>
    <contour>
      <point x="550" y="945" type="move" name="_top"></point>
=======
  <advance width="777"></advance>
  <unicode hex="0060"></unicode>
  <outline>
    <contour>
      <point x="499" y="1020" type="line"></point>
      <point x="593" y="1020" type="line"></point>
      <point x="417" y="1416" type="line"></point>
      <point x="229" y="1416" type="line"></point>
    </contour>
    <contour>
      <point x="555" y="928.2" type="move" name="_top"></point>
>>>>>>> a682e5496193d53979a8881d15f4a58493c1359d
    </contour>
  </outline>
</glyph>
<glyph name="a" format="1">
<<<<<<< HEAD
  <advance width="1061"></advance>
  <unicode hex="0061"></unicode>
  <outline>
    <contour>
      <point x="788" y="313" type="line"></point>
      <point x="713" y="191"></point>
      <point x="583" y="96"></point>
      <point x="413" y="104" type="curve" smooth="yes"></point>
      <point x="320" y="108"></point>
      <point x="242" y="167"></point>
      <point x="242" y="292" type="curve" smooth="yes"></point>
      <point x="242" y="415"></point>
      <point x="309" y="494"></point>
      <point x="539" y="494" type="curve" smooth="yes"></point>
      <point x="594" y="494"></point>
      <point x="732" y="486"></point>
      <point x="809" y="473" type="curve"></point>
      <point x="764" y="527" type="line"></point>
      <point x="764" y="239" type="line"></point>
    </contour>
    <contour>
      <point x="764" y="561" type="line"></point>
      <point x="808" y="588" type="line"></point>
      <point x="722" y="601"></point>
      <point x="584" y="607"></point>
      <point x="523" y="607" type="curve" smooth="yes"></point>
      <point x="204" y="607"></point>
      <point x="84" y="482"></point>
      <point x="84" y="293" type="curve" smooth="yes"></point>
      <point x="84" y="92"></point>
      <point x="214" y="-20"></point>
      <point x="405" y="-20" type="curve" smooth="yes"></point>
      <point x="527" y="-20"></point>
      <point x="685" y="16"></point>
      <point x="809" y="179" type="curve"></point>
      <point x="779" y="189" type="line"></point>
      <point x="802" y="0" type="line"></point>
      <point x="928" y="0" type="line"></point>
      <point x="928" y="717" type="line" smooth="yes"></point>
      <point x="928" y="1006"></point>
      <point x="762" y="1106"></point>
      <point x="521" y="1106" type="curve" smooth="yes"></point>
      <point x="332" y="1106"></point>
      <point x="155" y="1036"></point>
      <point x="127" y="878" type="curve"></point>
      <point x="253" y="836" type="line"></point>
      <point x="286" y="937"></point>
      <point x="401" y="980"></point>
      <point x="519" y="980" type="curve" smooth="yes"></point>
      <point x="682" y="980"></point>
      <point x="764" y="898"></point>
      <point x="764" y="742" type="curve"></point>
    </contour>
    <contour>
      <point x="530" y="1082.9" type="move" name="top"></point>
    </contour>
    <contour>
      <point x="867" y="0.5" type="move" name="ogonek"></point>
    </contour>
    <contour>
      <point x="453" y="0.5" type="move" name="bot"></point>
=======
  <advance width="1080"></advance>
  <unicode hex="0061"></unicode>
  <outline>
    <contour>
      <point x="792" y="300" type="line"></point>
      <point x="717" y="183"></point>
      <point x="587" y="92"></point>
      <point x="417" y="100" type="curve" smooth="yes"></point>
      <point x="324" y="103"></point>
      <point x="246" y="160"></point>
      <point x="246" y="280" type="curve" smooth="yes"></point>
      <point x="246" y="398"></point>
      <point x="313" y="474"></point>
      <point x="543" y="474" type="curve" smooth="yes"></point>
      <point x="598" y="474"></point>
      <point x="736" y="466"></point>
      <point x="813" y="454" type="curve"></point>
      <point x="768" y="506" type="line"></point>
      <point x="768" y="229" type="line"></point>
    </contour>
    <contour>
      <point x="768" y="538" type="line"></point>
      <point x="812" y="564" type="line"></point>
      <point x="726" y="577"></point>
      <point x="588" y="582"></point>
      <point x="527" y="582" type="curve" smooth="yes"></point>
      <point x="208" y="582"></point>
      <point x="88" y="462"></point>
      <point x="88" y="281" type="curve" smooth="yes"></point>
      <point x="88" y="88"></point>
      <point x="218" y="-20"></point>
      <point x="409" y="-20" type="curve" smooth="yes"></point>
      <point x="531" y="-20"></point>
      <point x="689" y="15"></point>
      <point x="813" y="172" type="curve"></point>
      <point x="783" y="181" type="line"></point>
      <point x="806" y="0" type="line"></point>
      <point x="932" y="0" type="line"></point>
      <point x="932" y="688" type="line" smooth="yes"></point>
      <point x="932" y="965"></point>
      <point x="766" y="1060"></point>
      <point x="525" y="1060" type="curve" smooth="yes"></point>
      <point x="336" y="1060"></point>
      <point x="182" y="996"></point>
      <point x="131" y="834" type="curve"></point>
      <point x="257" y="793" type="line"></point>
      <point x="295" y="901"></point>
      <point x="405" y="940"></point>
      <point x="523" y="940" type="curve" smooth="yes"></point>
      <point x="686" y="940"></point>
      <point x="768" y="862"></point>
      <point x="768" y="712" type="curve"></point>
    </contour>
    <contour>
      <point x="534" y="1032.304" type="move" name="top"></point>
    </contour>
    <contour>
      <point x="871" y="-6.8" type="move" name="ogonek"></point>
    </contour>
    <contour>
      <point x="457" y="-6.8" type="move" name="bot"></point>
>>>>>>> a682e5496193d53979a8881d15f4a58493c1359d
    </contour>
  </outline>
</glyph>
<glyph name="b" format="1">
  <advance width="1212"></advance>
  <unicode hex="0062"></unicode>
  <outline>
    <contour>
      <point x="623" y="110" type="curve" smooth="yes"></point>
      <point x="425" y="110"></point>
      <point x="315" y="261"></point>
      <point x="315" y="559" type="curve" smooth="yes"></point>
      <point x="315" y="812"></point>
      <point x="406" y="978"></point>
      <point x="633" y="978" type="curve" smooth="yes"></point>
      <point x="848" y="978"></point>
      <point x="912" y="799"></point>
      <point x="912" y="542" type="curve" smooth="yes"></point>
      <point x="912" y="275"></point>
      <point x="835" y="110"></point>
    </contour>
    <contour>
      <point x="639" y="-20" type="curve" smooth="yes"></point>
      <point x="934" y="-20"></point>
      <point x="1082" y="204"></point>
      <point x="1082" y="542" type="curve" smooth="yes"></point>
      <point x="1082" y="880"></point>
      <point x="946" y="1108"></point>
      <point x="647" y="1108" type="curve" smooth="yes"></point>
      <point x="485" y="1108"></point>
      <point x="381" y="1022"></point>
      <point x="295" y="874" type="curve"></point>
      <point x="316" y="872" type="line"></point>
      <point x="322" y="1105" type="line"></point>
      <point x="322" y="1560" type="line"></point>
      <point x="158" y="1548" type="line"></point>
      <point x="158" y="0" type="line"></point>
      <point x="289" y="0" type="line"></point>
      <point x="309" y="251" type="line"></point>
      <point x="284" y="244" type="line"></point>
      <point x="339" y="113"></point>
      <point x="454" y="-20"></point>
    </contour>
  </outline>
</glyph>
<glyph name="c" format="1">
  <advance width="1036"></advance>
  <unicode hex="0063"></unicode>
  <outline>
    <contour>
      <point x="575" y="-20" type="curve" smooth="yes"></point>
      <point x="797" y="-20"></point>
      <point x="907" y="88"></point>
      <point x="967" y="183" type="curve"></point>
      <point x="867" y="254" type="line"></point>
      <point x="813" y="178"></point>
      <point x="745" y="100"></point>
      <point x="582" y="100" type="curve" smooth="yes"></point>
      <point x="360" y="100"></point>
      <point x="265" y="271"></point>
      <point x="265" y="519" type="curve" smooth="yes"></point>
      <point x="265" y="790"></point>
      <point x="388" y="940"></point>
      <point x="590" y="940" type="curve" smooth="yes"></point>
      <point x="733" y="940"></point>
      <point x="808" y="859"></point>
      <point x="851" y="783" type="curve"></point>
      <point x="966" y="848" type="line"></point>
      <point x="913" y="936"></point>
      <point x="822" y="1060"></point>
      <point x="591" y="1060" type="curve" smooth="yes"></point>
      <point x="368" y="1060"></point>
      <point x="95" y="933"></point>
      <point x="95" y="514" type="curve" smooth="yes"></point>
      <point x="95" y="190"></point>
      <point x="279" y="-20"></point>
    </contour>
    <contour>
      <point x="592" y="1032.40011177" type="move" name="top"></point>
    </contour>
    <contour>
      <point x="611" y="-6.31988823468" type="move" name="bot"></point>
    </contour>
  </outline>
</glyph>
<glyph name="d" format="1">
<<<<<<< HEAD
  <advance width="1142"></advance>
  <unicode hex="0064"></unicode>
  <outline>
    <contour>
      <point x="528" y="-20" type="curve" smooth="yes"></point>
      <point x="722" y="-20"></point>
      <point x="803" y="82"></point>
      <point x="868" y="247" type="curve"></point>
      <point x="843" y="256" type="line"></point>
      <point x="863" y="0" type="line"></point>
      <point x="999" y="0" type="line"></point>
      <point x="999" y="1560" type="line"></point>
      <point x="835" y="1548" type="line"></point>
      <point x="835" y="1160" type="line"></point>
      <point x="845" y="837" type="line"></point>
      <point x="863" y="867" type="line"></point>
      <point x="803" y="990"></point>
      <point x="742" y="1106"></point>
      <point x="527" y="1106" type="curve" smooth="yes"></point>
      <point x="244" y="1106"></point>
      <point x="84" y="879"></point>
      <point x="84" y="551" type="curve" smooth="yes"></point>
      <point x="84" y="208"></point>
      <point x="231" y="-20"></point>
    </contour>
    <contour>
      <point x="542" y="109" type="curve" smooth="yes"></point>
      <point x="326" y="109"></point>
      <point x="252" y="290"></point>
      <point x="252" y="548" type="curve" smooth="yes"></point>
      <point x="252" y="817"></point>
      <point x="341" y="980"></point>
      <point x="551" y="980" type="curve" smooth="yes"></point>
      <point x="750" y="980"></point>
      <point x="842" y="826"></point>
      <point x="842" y="531" type="curve" smooth="yes"></point>
      <point x="841" y="278"></point>
      <point x="771" y="109"></point>
    </contour>
    <contour>
      <point x="911" y="1334" type="move" name="mid"></point>
=======
  <advance width="1123"></advance>
  <unicode hex="0064"></unicode>
  <outline>
    <contour>
      <point x="539" y="-20" type="curve" smooth="yes"></point>
      <point x="733" y="-20"></point>
      <point x="823" y="91"></point>
      <point x="879" y="236" type="curve"></point>
      <point x="854" y="245" type="line"></point>
      <point x="874" y="0" type="line"></point>
      <point x="1010" y="0" type="line"></point>
      <point x="1010" y="1496" type="line"></point>
      <point x="846" y="1485" type="line"></point>
      <point x="846" y="1112" type="line"></point>
      <point x="856" y="802" type="line"></point>
      <point x="874" y="831" type="line"></point>
      <point x="830" y="928"></point>
      <point x="753" y="1060"></point>
      <point x="538" y="1060" type="curve" smooth="yes"></point>
      <point x="255" y="1060"></point>
      <point x="95" y="843"></point>
      <point x="95" y="528" type="curve" smooth="yes"></point>
      <point x="95" y="198"></point>
      <point x="242" y="-20"></point>
    </contour>
    <contour>
      <point x="553" y="100" type="curve" smooth="yes"></point>
      <point x="337" y="100"></point>
      <point x="263" y="277"></point>
      <point x="263" y="525" type="curve" smooth="yes"></point>
      <point x="263" y="783"></point>
      <point x="352" y="940"></point>
      <point x="562" y="940" type="curve" smooth="yes"></point>
      <point x="761" y="940"></point>
      <point x="853" y="792"></point>
      <point x="853" y="509" type="curve" smooth="yes"></point>
      <point x="852" y="266"></point>
      <point x="782" y="100"></point>
    </contour>
    <contour>
      <point x="922" y="1282.44" type="move" name="mid"></point>
>>>>>>> a682e5496193d53979a8881d15f4a58493c1359d
    </contour>
  </outline>
</glyph>
<glyph name="e" format="1">
  <advance width="1037"></advance>
  <unicode hex="0065"></unicode>
  <outline>
    <contour>
      <point x="593" y="-20" type="curve" smooth="yes"></point>
      <point x="742" y="-20"></point>
      <point x="866" y="20"></point>
      <point x="957" y="75" type="curve"></point>
      <point x="922" y="195" type="line"></point>
      <point x="828" y="145"></point>
      <point x="728" y="106"></point>
      <point x="611" y="106" type="curve" smooth="yes"></point>
      <point x="401" y="106"></point>
      <point x="249" y="249"></point>
      <point x="248" y="567" type="curve"></point>
      <point x="197" y="516" type="line"></point>
      <point x="982" y="516" type="line"></point>
      <point x="982" y="516"></point>
      <point x="988" y="576"></point>
      <point x="988" y="602" type="curve" smooth="yes"></point>
      <point x="988" y="914"></point>
      <point x="836" y="1106"></point>
      <point x="573" y="1106" type="curve" smooth="yes"></point>
      <point x="305" y="1106"></point>
      <point x="81" y="891"></point>
      <point x="81" y="538" type="curve" smooth="yes"></point>
      <point x="81" y="190"></point>
      <point x="306" y="-20"></point>
    </contour>
    <contour>
      <point x="850" y="577" type="curve"></point>
      <point x="914" y="627" type="line"></point>
      <point x="193" y="627" type="line"></point>
      <point x="250" y="585" type="line"></point>
      <point x="260" y="804"></point>
      <point x="380" y="980"></point>
      <point x="577" y="980" type="curve" smooth="yes"></point>
      <point x="761" y="980"></point>
      <point x="852" y="819"></point>
    </contour>
    <contour>
      <point x="872" y="54" type="move" name="ogonek"></point>
    </contour>
    <contour>
      <point x="585" y="0.5" type="move" name="bot"></point>
    </contour>
    <contour>
      <point x="572" y="1083" type="move" name="top"></point>
    </contour>
  </outline>
</glyph>
<glyph name="f" format="1">
  <advance width="734"/>
  <unicode hex="0066"/>
  <outline>
    <contour>
      <point x="272" y="0" type="line"/>
      <point x="436" y="0" type="line"/>
      <point x="436" y="1020" type="line"/>
      <point x="404" y="980" type="line"/>
      <point x="711" y="980" type="line"/>
      <point x="711" y="1082" type="line"/>
      <point x="400" y="1082" type="line"/>
      <point x="436" y="1045" type="line"/>
      <point x="436" y="1162" type="line" smooth="yes"/>
      <point x="436" y="1367"/>
      <point x="512" y="1392"/>
      <point x="613" y="1392" type="curve" smooth="yes"/>
      <point x="659" y="1392"/>
      <point x="705" y="1384"/>
      <point x="715" y="1382" type="curve"/>
      <point x="727" y="1500" type="line"/>
      <point x="706" y="1504"/>
      <point x="657" y="1517"/>
      <point x="583" y="1517" type="curve" smooth="yes"/>
      <point x="398" y="1517"/>
      <point x="272" y="1427"/>
      <point x="272" y="1152" type="curve" smooth="yes"/>
      <point x="272" y="1047" type="line"/>
      <point x="312" y="1082" type="line"/>
      <point x="83" y="1066" type="line"/>
      <point x="78" y="980" type="line"/>
      <point x="312" y="980" type="line"/>
      <point x="272" y="1019" type="line"/>
    </contour>
  </outline>
</glyph>
<glyph name="g" format="1">
<<<<<<< HEAD
  <advance width="1142"></advance>
  <unicode hex="0067"></unicode>
  <outline>
    <contour>
      <point x="849" y="57" type="line" smooth="yes"></point>
      <point x="849" y="-221"></point>
      <point x="748" y="-304"></point>
      <point x="526" y="-304" type="curve" smooth="yes"></point>
      <point x="390" y="-304"></point>
      <point x="310" y="-277"></point>
      <point x="217" y="-247" type="curve"></point>
      <point x="202" y="-380" type="line"></point>
      <point x="295" y="-410"></point>
      <point x="405" y="-437"></point>
      <point x="526" y="-437" type="curve" smooth="yes"></point>
      <point x="884" y="-437"></point>
      <point x="1005" y="-258"></point>
      <point x="1005" y="105" type="curve" smooth="yes"></point>
      <point x="1005" y="1082" type="line"></point>
      <point x="869" y="1082" type="line"></point>
      <point x="847" y="833" type="line"></point>
      <point x="872" y="854" type="line"></point>
      <point x="799" y="1006"></point>
      <point x="697" y="1106"></point>
      <point x="516" y="1106" type="curve" smooth="yes"></point>
      <point x="223" y="1106"></point>
      <point x="84" y="877"></point>
      <point x="84" y="538" type="curve" smooth="yes"></point>
      <point x="84" y="209"></point>
      <point x="236" y="-7"></point>
      <point x="519" y="-7" type="curve" smooth="yes"></point>
      <point x="708" y="-7"></point>
      <point x="808" y="95"></point>
      <point x="868" y="232" type="curve"></point>
      <point x="849" y="245" type="line"></point>
    </contour>
    <contour>
      <point x="545" y="123" type="curve" smooth="yes"></point>
      <point x="335" y="123"></point>
      <point x="254" y="277"></point>
      <point x="254" y="540" type="curve" smooth="yes"></point>
      <point x="254" y="790"></point>
      <point x="321" y="980"></point>
      <point x="535" y="980" type="curve" smooth="yes"></point>
      <point x="762" y="980"></point>
      <point x="847" y="808"></point>
      <point x="848" y="558" type="curve"></point>
      <point x="848" y="275"></point>
      <point x="746" y="123"></point>
    </contour>
    <contour>
      <point x="543" y="1082" type="move" name="top"></point>
    </contour>
    <contour>
      <point x="523" y="-475.9" type="move" name="bot"></point>
=======
  <advance width="1166"></advance>
  <unicode hex="0067"></unicode>
  <outline>
    <contour>
      <point x="860" y="54" type="line" smooth="yes"></point>
      <point x="860" y="-213"></point>
      <point x="759" y="-292"></point>
      <point x="537" y="-292" type="curve" smooth="yes"></point>
      <point x="401" y="-292"></point>
      <point x="321" y="-267"></point>
      <point x="228" y="-238" type="curve"></point>
      <point x="213" y="-365" type="line"></point>
      <point x="306" y="-394"></point>
      <point x="416" y="-420"></point>
      <point x="537" y="-420" type="curve" smooth="yes"></point>
      <point x="895" y="-420"></point>
      <point x="1016" y="-248"></point>
      <point x="1016" y="100" type="curve" smooth="yes"></point>
      <point x="1016" y="1040" type="line"></point>
      <point x="880" y="1040" type="line"></point>
      <point x="858" y="799" type="line"></point>
      <point x="883" y="819" type="line"></point>
      <point x="820" y="966"></point>
      <point x="708" y="1060"></point>
      <point x="527" y="1060" type="curve" smooth="yes"></point>
      <point x="234" y="1060"></point>
      <point x="95" y="841"></point>
      <point x="95" y="516" type="curve" smooth="yes"></point>
      <point x="95" y="200"></point>
      <point x="247" y="-7"></point>
      <point x="530" y="-7" type="curve" smooth="yes"></point>
      <point x="719" y="-7"></point>
      <point x="819" y="91"></point>
      <point x="879" y="222" type="curve"></point>
      <point x="860" y="235" type="line"></point>
    </contour>
    <contour>
      <point x="556" y="116" type="curve" smooth="yes"></point>
      <point x="346" y="116"></point>
      <point x="265" y="265"></point>
      <point x="265" y="518" type="curve" smooth="yes"></point>
      <point x="265" y="758"></point>
      <point x="332" y="940"></point>
      <point x="546" y="940" type="curve" smooth="yes"></point>
      <point x="773" y="940"></point>
      <point x="858" y="775"></point>
      <point x="859" y="535" type="curve"></point>
      <point x="859" y="263"></point>
      <point x="757" y="116"></point>
    </contour>
    <contour>
      <point x="554" y="1023.1" type="move" name="top"></point>
    </contour>
    <contour>
      <point x="534" y="-472.484" type="move" name="bot"></point>
>>>>>>> a682e5496193d53979a8881d15f4a58493c1359d
    </contour>
  </outline>
</glyph>
<glyph name="h" format="1">
  <advance width="1141"></advance>
  <unicode hex="0068"></unicode>
  <outline>
    <contour>
      <point x="132" y="0" type="line"></point>
      <point x="295" y="0" type="line"></point>
      <point x="295" y="593" type="line" smooth="yes"></point>
      <point x="295" y="782"></point>
      <point x="371" y="980"></point>
      <point x="625" y="980" type="curve" smooth="yes"></point>
      <point x="787" y="980"></point>
      <point x="847" y="873"></point>
      <point x="847" y="664" type="curve" smooth="yes"></point>
      <point x="847" y="0" type="line"></point>
      <point x="1013" y="0" type="line"></point>
      <point x="1013" y="670" type="line" smooth="yes"></point>
      <point x="1013" y="948"></point>
      <point x="884" y="1106"></point>
      <point x="652" y="1106" type="curve" smooth="yes"></point>
      <point x="490" y="1106"></point>
      <point x="343" y="1036"></point>
      <point x="268" y="855" type="curve"></point>
      <point x="288" y="837" type="line"></point>
      <point x="296" y="1146" type="line"></point>
      <point x="296" y="1560" type="line"></point>
      <point x="132" y="1547" type="line"></point>
    </contour>
    <contour>
      <point x="641" y="1383.75" type="move" name="top"></point>
    </contour>
    <contour>
      <point x="214" y="1284.325" type="move" name="mid"></point>
    </contour>
  </outline>
</glyph>
<glyph name="i" format="1">
  <advance width="561"></advance>
  <unicode hex="0069"></unicode>
  <outline>
    <contour>
      <point x="287" y="1436" type="curve" smooth="yes"></point>
      <point x="350" y="1436"></point>
      <point x="375" y="1401"></point>
      <point x="375" y="1339" type="curve" smooth="yes"></point>
      <point x="375" y="1277"></point>
      <point x="350" y="1240"></point>
      <point x="287" y="1240" type="curve" smooth="yes"></point>
      <point x="223" y="1240"></point>
      <point x="199" y="1277"></point>
      <point x="199" y="1339" type="curve" smooth="yes"></point>
      <point x="199" y="1401"></point>
      <point x="223" y="1436"></point>
    </contour>
    <contour>
      <point x="205" y="0" type="line"></point>
      <point x="369" y="0" type="line"></point>
      <point x="369" y="1040" type="line"></point>
      <point x="205" y="1040" type="line"></point>
    </contour>
    <contour>
      <point x="287" y="0.92" type="move" name="bot"></point>
    </contour>
  </outline>
</glyph>
<glyph name="j" format="1">
  <advance width="586"></advance>
  <unicode hex="006A"></unicode>
  <outline>
    <contour>
      <point x="314" y="1496" type="curve" smooth="yes"></point>
      <point x="377" y="1496"></point>
      <point x="402" y="1459"></point>
      <point x="402" y="1395" type="curve" smooth="yes"></point>
      <point x="402" y="1330"></point>
      <point x="377" y="1292"></point>
      <point x="314" y="1292" type="curve" smooth="yes"></point>
      <point x="250" y="1292"></point>
      <point x="226" y="1330"></point>
      <point x="226" y="1395" type="curve" smooth="yes"></point>
      <point x="226" y="1459"></point>
      <point x="250" y="1496"></point>
    </contour>
    <contour>
      <point x="37" y="-378" type="line"></point>
      <point x="96" y="-371" type="line" smooth="yes"></point>
      <point x="316" y="-344"></point>
      <point x="396" y="-269"></point>
      <point x="396" y="-10" type="curve" smooth="yes"></point>
      <point x="396" y="1082" type="line"></point>
      <point x="232" y="1082" type="line"></point>
      <point x="232" y="21" type="line" smooth="yes"></point>
      <point x="232" y="-169"></point>
      <point x="229" y="-205"></point>
      <point x="80" y="-235" type="curve" smooth="yes"></point>
      <point x="18" y="-247" type="line"></point>
    </contour>
  </outline>
</glyph>
<glyph name="k" format="1">
<<<<<<< HEAD
  <advance width="979"></advance>
  <unicode hex="006B"></unicode>
  <outline>
    <contour>
      <point x="128" y="0" type="line"></point>
      <point x="292" y="0" type="line"></point>
      <point x="292" y="438" type="line"></point>
      <point x="263" y="372" type="line"></point>
      <point x="447" y="529" type="line"></point>
      <point x="395" y="538" type="line"></point>
      <point x="841" y="0" type="line"></point>
      <point x="1036" y="0" type="line"></point>
      <point x="508" y="621" type="line"></point>
      <point x="504" y="556" type="line"></point>
      <point x="998" y="1082" type="line"></point>
      <point x="797" y="1082" type="line"></point>
      <point x="251" y="499" type="line"></point>
      <point x="285" y="486" type="line"></point>
      <point x="292" y="757" type="line"></point>
      <point x="292" y="1560" type="line"></point>
      <point x="128" y="1547" type="line"></point>
    </contour>
    <contour>
      <point x="547" y="0.0" type="move" name="bot"></point>
    </contour>
  </outline>
</glyph>
<glyph name="l" format="1">
  <advance width="604"></advance>
  <unicode hex="006C"></unicode>
  <outline>
    <contour>
      <point x="428" y="-6" type="curve" smooth="yes"></point>
      <point x="485" y="-6" type="line"></point>
      <point x="499" y="111" type="line"></point>
      <point x="467" y="113" type="line" smooth="yes"></point>
      <point x="342" y="122"></point>
      <point x="320" y="135"></point>
      <point x="320" y="300" type="curve" smooth="yes"></point>
      <point x="320" y="1496" type="line"></point>
      <point x="156" y="1484" type="line"></point>
      <point x="156" y="295" type="line" smooth="yes"></point>
      <point x="156" y="39"></point>
      <point x="247" y="-6"></point>
    </contour>
    <contour>
      <point x="322" y="2.232" type="move" name="bot"></point>
    </contour>
    <contour>
      <point x="616" y="1042.32" type="move" name="mid"></point>
    </contour>
    <contour>
      <point x="330" y="1438.872" type="move" name="top"></point>
    </contour>
    <contour>
      <point x="236" y="883.896" type="move" name="mid2"></point>
    </contour>
  </outline>
</glyph>
<glyph name="m" format="1">
  <advance width="1763"></advance>
  <unicode hex="006D"></unicode>
  <outline>
    <contour>
      <point x="126" y="0" type="line"></point>
      <point x="290" y="0" type="line"></point>
      <point x="290" y="639" type="line"></point>
      <point x="316" y="830"></point>
      <point x="415" y="980"></point>
      <point x="585" y="980" type="curve" smooth="yes"></point>
      <point x="737" y="980"></point>
      <point x="796" y="864"></point>
      <point x="796" y="609" type="curve" smooth="yes"></point>
      <point x="796" y="0" type="line"></point>
      <point x="960" y="0" type="line"></point>
      <point x="960" y="593" type="line" smooth="yes"></point>
      <point x="960" y="870"></point>
      <point x="1117" y="980.0"></point>
      <point x="1261" y="980" type="curve" smooth="yes"></point>
      <point x="1440" y="980"></point>
      <point x="1466" y="801"></point>
      <point x="1466" y="646" type="curve" smooth="yes"></point>
      <point x="1466" y="0" type="line"></point>
      <point x="1630" y="0" type="line"></point>
      <point x="1630" y="699" type="line" smooth="yes"></point>
      <point x="1630" y="965"></point>
      <point x="1507" y="1106"></point>
      <point x="1287" y="1106" type="curve" smooth="yes"></point>
      <point x="1124" y="1106"></point>
      <point x="980" y="1018"></point>
      <point x="907" y="858" type="curve"></point>
      <point x="932" y="862" type="line"></point>
      <point x="883" y="1000"></point>
      <point x="794" y="1106"></point>
      <point x="612" y="1106" type="curve" smooth="yes"></point>
      <point x="466" y="1106"></point>
      <point x="342" y="1023"></point>
      <point x="273" y="860" type="curve"></point>
      <point x="291" y="850" type="line"></point>
      <point x="268" y="1082" type="line"></point>
      <point x="126" y="1082" type="line"></point>
    </contour>
    <contour>
      <point x="906" y="1082.4" type="move" name="top"></point>
    </contour>
  </outline>
</glyph>
<glyph name="n" format="1">
  <advance width="1141"></advance>
  <unicode hex="006E"></unicode>
  <outline>
    <contour>
      <point x="137" y="0" type="line"></point>
      <point x="301" y="0" type="line"></point>
      <point x="301" y="581" type="line" smooth="yes"></point>
      <point x="301" y="778"></point>
      <point x="396" y="980"></point>
      <point x="632" y="980" type="curve" smooth="yes"></point>
      <point x="802" y="980"></point>
      <point x="851" y="851"></point>
      <point x="851" y="669" type="curve" smooth="yes"></point>
      <point x="851" y="0" type="line"></point>
      <point x="1015" y="0" type="line"></point>
      <point x="1015" y="650" type="line" smooth="yes"></point>
      <point x="1015" y="945"></point>
      <point x="905" y="1106"></point>
      <point x="661" y="1106" type="curve" smooth="yes"></point>
      <point x="478" y="1106"></point>
      <point x="351" y="1020"></point>
      <point x="276" y="856" type="curve"></point>
      <point x="304" y="845" type="line"></point>
      <point x="279" y="1082" type="line"></point>
      <point x="137" y="1082" type="line"></point>
    </contour>
    <contour>
      <point x="665" y="1082" type="move" name="top"></point>
    </contour>
    <contour>
      <point x="571" y="0.0" type="move" name="bot"></point>
    </contour>
    <contour>
      <point x="107" y="1084.45" type="move" name="mid"></point>
    </contour>
  </outline>
</glyph>
<glyph name="o" format="1">
  <advance width="1141"></advance>
  <unicode hex="006F"></unicode>
  <outline>
    <contour>
      <point x="572" y="106" type="curve" smooth="yes"></point>
      <point x="351" y="106"></point>
      <point x="258" y="294"></point>
      <point x="258" y="541" type="curve" smooth="yes"></point>
      <point x="258" y="794"></point>
      <point x="352" y="980"></point>
      <point x="572" y="980" type="curve" smooth="yes"></point>
      <point x="798" y="980"></point>
      <point x="887" y="793"></point>
      <point x="887" y="540" type="curve" smooth="yes"></point>
      <point x="887" y="293"></point>
      <point x="799" y="106"></point>
    </contour>
    <contour>
      <point x="572" y="-20" type="curve" smooth="yes"></point>
      <point x="876" y="-20"></point>
      <point x="1057" y="206"></point>
      <point x="1057" y="542" type="curve" smooth="yes"></point>
      <point x="1057" y="886"></point>
      <point x="891" y="1106"></point>
      <point x="572" y="1106" type="curve" smooth="yes"></point>
      <point x="256" y="1106"></point>
      <point x="88" y="886"></point>
      <point x="88" y="542" type="curve" smooth="yes"></point>
      <point x="88" y="206"></point>
      <point x="260" y="-20"></point>
    </contour>
    <contour>
      <point x="572" y="0.5" type="move" name="bot"></point>
    </contour>
    <contour>
      <point x="571" y="1082.9" type="move" name="top"></point>
    </contour>
  </outline>
</glyph>
<glyph name="p" format="1">
<<<<<<< HEAD
  <advance width="1142"></advance>
  <unicode hex="0070"></unicode>
  <outline>
    <contour>
      <point x="122" y="-416" type="line"></point>
      <point x="286" y="-416" type="line"></point>
      <point x="286" y="-68" type="line"></point>
      <point x="278" y="236" type="line"></point>
      <point x="259" y="228" type="line"></point>
      <point x="312" y="92"></point>
      <point x="418" y="-20"></point>
      <point x="609" y="-20" type="curve" smooth="yes"></point>
      <point x="892" y="-20"></point>
      <point x="1044" y="210"></point>
      <point x="1044" y="539" type="curve" smooth="yes"></point>
      <point x="1044" y="878"></point>
      <point x="908" y="1106"></point>
      <point x="615" y="1106" type="curve" smooth="yes"></point>
      <point x="444" y="1106"></point>
      <point x="328" y="1013"></point>
      <point x="264" y="857" type="curve"></point>
      <point x="279" y="852" type="line"></point>
      <point x="258" y="1082" type="line"></point>
      <point x="122" y="1082" type="line"></point>
    </contour>
    <contour>
      <point x="583" y="106" type="curve" smooth="yes"></point>
      <point x="382" y="106"></point>
      <point x="279" y="275"></point>
      <point x="279" y="558" type="curve"></point>
      <point x="280" y="808"></point>
      <point x="369" y="980"></point>
      <point x="596" y="980" type="curve" smooth="yes"></point>
      <point x="810" y="980"></point>
      <point x="874" y="791"></point>
      <point x="874" y="541" type="curve" smooth="yes"></point>
      <point x="874" y="277"></point>
      <point x="793" y="106"></point>
    </contour>
    <contour>
      <point x="620" y="1082" type="move" name="top"></point>
=======
  <advance width="1166"></advance>
  <unicode hex="0070"></unicode>
  <outline>
    <contour>
      <point x="131" y="-402" type="line"></point>
      <point x="295" y="-402" type="line"></point>
      <point x="295" y="-67" type="line"></point>
      <point x="287" y="224" type="line"></point>
      <point x="268" y="217" type="line"></point>
      <point x="321" y="86"></point>
      <point x="427" y="-20"></point>
      <point x="618" y="-20" type="curve" smooth="yes"></point>
      <point x="901" y="-20"></point>
      <point x="1053" y="199"></point>
      <point x="1053" y="515" type="curve" smooth="yes"></point>
      <point x="1053" y="841"></point>
      <point x="917" y="1060"></point>
      <point x="624" y="1060" type="curve" smooth="yes"></point>
      <point x="453" y="1060"></point>
      <point x="337" y="970"></point>
      <point x="273" y="821" type="curve"></point>
      <point x="288" y="816" type="line"></point>
      <point x="267" y="1040" type="line"></point>
      <point x="131" y="1040" type="line"></point>
    </contour>
    <contour>
      <point x="592" y="100" type="curve" smooth="yes"></point>
      <point x="391" y="100"></point>
      <point x="288" y="262"></point>
      <point x="288" y="533" type="curve"></point>
      <point x="289" y="773"></point>
      <point x="378" y="940"></point>
      <point x="605" y="940" type="curve" smooth="yes"></point>
      <point x="819" y="940"></point>
      <point x="883" y="757"></point>
      <point x="883" y="517" type="curve" smooth="yes"></point>
      <point x="883" y="264"></point>
      <point x="802" y="100"></point>
    </contour>
    <contour>
      <point x="629" y="1023.52" type="move" name="top"></point>
>>>>>>> a682e5496193d53979a8881d15f4a58493c1359d
    </contour>
  </outline>
</glyph>
<glyph name="q" format="1">
  <advance width="1212"></advance>
  <unicode hex="0071"></unicode>
  <outline>
    <contour>
      <point x="866" y="-416" type="line"></point>
      <point x="1030" y="-416" type="line"></point>
      <point x="1030" y="1082" type="line"></point>
      <point x="894" y="1082" type="line"></point>
      <point x="875" y="841" type="line"></point>
      <point x="897" y="854" type="line"></point>
      <point x="829" y="1006"></point>
      <point x="734" y="1106"></point>
      <point x="553" y="1106" type="curve" smooth="yes"></point>
      <point x="260" y="1106"></point>
      <point x="126" y="878"></point>
      <point x="126" y="539" type="curve" smooth="yes"></point>
      <point x="126" y="210"></point>
      <point x="273" y="-20"></point>
      <point x="556" y="-20" type="curve" smooth="yes"></point>
      <point x="749" y="-20"></point>
      <point x="845" y="112"></point>
      <point x="893" y="259" type="curve"></point>
      <point x="876" y="268" type="line"></point>
      <point x="866" y="-68" type="line"></point>
    </contour>
    <contour>
      <point x="582" y="106" type="curve" smooth="yes"></point>
      <point x="372" y="106"></point>
      <point x="296" y="277"></point>
      <point x="296" y="541" type="curve" smooth="yes"></point>
      <point x="296" y="791"></point>
      <point x="358" y="980"></point>
      <point x="572" y="980" type="curve" smooth="yes"></point>
      <point x="799" y="980"></point>
      <point x="872" y="818"></point>
      <point x="873" y="558" type="curve"></point>
      <point x="873" y="275"></point>
      <point x="783" y="106"></point>
    </contour>
  </outline>
</glyph>
<glyph name="r" format="1">
  <advance width="691"></advance>
  <unicode hex="0072"></unicode>
  <outline>
    <contour>
      <point x="143" y="0" type="line"></point>
      <point x="307" y="0" type="line"></point>
      <point x="307" y="589" type="line" smooth="yes"></point>
      <point x="307" y="771"></point>
      <point x="416" y="921"></point>
      <point x="601" y="921" type="curve" smooth="yes"></point>
      <point x="623" y="921"></point>
      <point x="644" y="918"></point>
      <point x="669" y="913" type="curve"></point>
      <point x="682" y="1047" type="line"></point>
      <point x="659" y="1051"></point>
      <point x="638" y="1052"></point>
      <point x="608" y="1052" type="curve" smooth="yes"></point>
      <point x="470" y="1052"></point>
      <point x="357" y="973"></point>
      <point x="272" y="786" type="curve"></point>
      <point x="297" y="776" type="line"></point>
      <point x="274" y="1040" type="line"></point>
      <point x="143" y="1040" type="line"></point>
    </contour>
    <contour>
      <point x="256" y="-7.08" type="move" name="bot"></point>
    </contour>
    <contour>
      <point x="436" y="1032.024" type="move" name="top"></point>
    </contour>
  </outline>
</glyph>
<glyph name="s" format="1">
  <advance width="981"></advance>
  <unicode hex="0073"></unicode>
  <outline>
    <contour>
      <point x="526" y="980.0" type="curve" smooth="yes"></point>
      <point x="642" y="977.0"></point>
      <point x="726" y="929.0"></point>
      <point x="768" y="872.0" type="curve"></point>
      <point x="872" y="950.0" type="line"></point>
      <point x="814" y="1038.0"></point>
      <point x="693" y="1106.0"></point>
      <point x="516" y="1106.0" type="curve" smooth="yes"></point>
      <point x="273" y="1106.0"></point>
      <point x="123" y="996.0"></point>
      <point x="123" y="818.0" type="curve" smooth="yes"></point>
      <point x="123" y="695.0"></point>
      <point x="157" y="602.0"></point>
      <point x="490" y="500.0" type="curve" smooth="yes"></point>
      <point x="703" y="439.0"></point>
      <point x="743" y="380.0"></point>
      <point x="743" y="283.0" type="curve" smooth="yes"></point>
      <point x="743" y="168.0"></point>
      <point x="648" y="102.0"></point>
      <point x="512" y="102.0" type="curve" smooth="yes"></point>
      <point x="405" y="102.0"></point>
      <point x="269" y="139.0"></point>
      <point x="199" y="229.0" type="curve"></point>
      <point x="92" y="147.0" type="line"></point>
      <point x="179" y="38.0"></point>
      <point x="340" y="-20.0"></point>
      <point x="510" y="-20.0" type="curve" smooth="yes"></point>
      <point x="713" y="-20.0"></point>
      <point x="895" y="80.0"></point>
      <point x="895" y="291.0" type="curve" smooth="yes"></point>
      <point x="895" y="424.0"></point>
      <point x="870" y="524.0"></point>
      <point x="533" y="634.0" type="curve" smooth="yes"></point>
      <point x="337" y="698.0"></point>
      <point x="280" y="729.0"></point>
      <point x="280" y="819.0" type="curve" smooth="yes"></point>
      <point x="280" y="920.0"></point>
      <point x="352" y="985.0"></point>
    </contour>
    <contour>
      <point x="484" y="1" type="move" name="bot"></point>
    </contour>
    <contour>
      <point x="520" y="1083" type="move" name="top"></point>
    </contour>
  </outline>
</glyph>
<glyph name="t" format="1">
  <advance width="703"></advance>
  <unicode hex="0074"></unicode>
  <outline>
    <contour>
      <point x="584" y="-8" type="curve" smooth="yes"></point>
      <point x="653" y="-8" type="line"></point>
      <point x="661" y="109" type="line"></point>
      <point x="577" y="113" type="line"></point>
      <point x="412" y="113"></point>
      <point x="413" y="150"></point>
      <point x="413" y="325" type="curve" smooth="yes"></point>
      <point x="413" y="1020" type="line"></point>
      <point x="380" y="980" type="line"></point>
      <point x="651" y="980" type="line"></point>
      <point x="651" y="1082" type="line"></point>
      <point x="380" y="1082" type="line"></point>
      <point x="413" y="1046" type="line"></point>
      <point x="413" y="1382" type="line"></point>
      <point x="280" y="1372" type="line"></point>
      <point x="250" y="1051" type="line"></point>
      <point x="283" y="1082" type="line"></point>
      <point x="81" y="1073" type="line"></point>
      <point x="77" y="980" type="line"></point>
      <point x="279" y="980" type="line"></point>
      <point x="249" y="1019" type="line"></point>
      <point x="249" y="325" type="line" smooth="yes"></point>
      <point x="249" y="69"></point>
      <point x="285" y="-8"></point>
    </contour>
    <contour>
      <point x="486" y="0.2" type="move" name="bot"></point>
    </contour>
    <contour>
      <point x="325" y="631.6" type="move" name="mid"></point>
    </contour>
    <contour>
      <point x="339" y="1383.95" type="move" name="top"></point>
    </contour>
  </outline>
</glyph>
<glyph name="u" format="1">
  <advance width="1212"></advance>
  <unicode hex="0075"></unicode>
  <outline>
    <contour>
      <point x="1039" y="1082" type="line"></point>
      <point x="875" y="1082" type="line"></point>
      <point x="875" y="475" type="line" smooth="yes"></point>
      <point x="875" y="268"></point>
      <point x="795" y="106"></point>
      <point x="558" y="106" type="curve" smooth="yes"></point>
      <point x="388" y="106"></point>
      <point x="322" y="221"></point>
      <point x="322" y="403" type="curve" smooth="yes"></point>
      <point x="322" y="1082" type="line"></point>
      <point x="158" y="1082" type="line"></point>
      <point x="158" y="422" type="line" smooth="yes"></point>
      <point x="158" y="127"></point>
      <point x="294" y="-20"></point>
      <point x="538" y="-20" type="curve" smooth="yes"></point>
      <point x="751" y="-20"></point>
      <point x="833" y="76"></point>
      <point x="900" y="206" type="curve"></point>
      <point x="875" y="217" type="line"></point>
      <point x="897" y="0" type="line"></point>
      <point x="1039" y="0" type="line"></point>
    </contour>
    <contour>
      <point x="963" y="1" type="move" name="ogonek"></point>
    </contour>
    <contour>
      <point x="564" y="0.5" type="move" name="bot"></point>
    </contour>
    <contour>
      <point x="621" y="1082.9" type="move" name="top"></point>
    </contour>
  </outline>
</glyph>
<glyph name="v" format="1">
  <advance width="993"></advance>
  <unicode hex="0076"></unicode>
  <outline>
    <contour>
      <point x="406" y="0" type="line"></point>
      <point x="573" y="0" type="line"></point>
      <point x="962" y="1040" type="line"></point>
      <point x="796" y="1040" type="line"></point>
      <point x="614" y="528" type="line"></point>
      <point x="470" y="130" type="line"></point>
      <point x="513" y="130" type="line"></point>
      <point x="364" y="529" type="line"></point>
      <point x="180" y="1040" type="line"></point>
      <point x="13" y="1040" type="line"></point>
    </contour>
  </outline>
</glyph>
<glyph name="w" format="1">
  <advance width="1452"></advance>
  <unicode hex="0077"></unicode>
  <outline>
    <contour>
      <point x="294" y="0" type="line"></point>
      <point x="441" y="0" type="line"></point>
      <point x="742" y="989" type="line"></point>
      <point x="710" y="989" type="line"></point>
      <point x="1017" y="0" type="line"></point>
      <point x="1164" y="0" type="line"></point>
      <point x="1447" y="1082" type="line"></point>
      <point x="1295" y="1082" type="line"></point>
      <point x="1072" y="150" type="line"></point>
      <point x="1106" y="150" type="line"></point>
      <point x="810" y="1082" type="line"></point>
      <point x="633" y="1082" type="line"></point>
      <point x="357" y="149" type="line"></point>
      <point x="393" y="149" type="line"></point>
      <point x="149" y="1082" type="line"></point>
      <point x="-7" y="1082" type="line"></point>
    </contour>
    <contour>
      <point x="724" y="1082.4" type="move" name="top"></point>
    </contour>
  </outline>
</glyph>
<glyph name="x" format="1">
<<<<<<< HEAD
  <advance width="1020"></advance>
  <unicode hex="0078"></unicode>
  <outline>
    <contour>
      <point x="776" y="0.0" type="line"></point>
      <point x="961" y="0.0" type="line"></point>
      <point x="234" y="1082.0" type="line"></point>
      <point x="49" y="1082.0" type="line"></point>
    </contour>
    <contour>
      <point x="577" y="531" type="line"></point>
      <point x="958" y="1082" type="line"></point>
      <point x="790" y="1082" type="line"></point>
      <point x="497" y="646" type="line"></point>
      <point x="413" y="557" type="line"></point>
      <point x="27" y="0" type="line"></point>
      <point x="194" y="0" type="line"></point>
      <point x="488" y="436" type="line"></point>
=======
  <advance width="993"></advance>
  <unicode hex="0078"></unicode>
  <outline>
    <contour>
      <point x="782" y="0" type="line"></point>
      <point x="967" y="0" type="line"></point>
      <point x="240" y="1040" type="line"></point>
      <point x="55" y="1040" type="line"></point>
    </contour>
    <contour>
      <point x="583" y="509" type="line"></point>
      <point x="964" y="1040" type="line"></point>
      <point x="796" y="1040" type="line"></point>
      <point x="503" y="620" type="line"></point>
      <point x="419" y="534" type="line"></point>
      <point x="33" y="0" type="line"></point>
      <point x="200" y="0" type="line"></point>
      <point x="494" y="418" type="line"></point>
>>>>>>> a682e5496193d53979a8881d15f4a58493c1359d
    </contour>
  </outline>
</glyph>
<glyph name="y" format="1">
  <advance width="993"></advance>
  <unicode hex="0079"></unicode>
  <outline>
    <contour>
      <point x="421" y="-409" type="line"></point>
      <point x="984" y="1040" type="line"></point>
      <point x="822" y="1040" type="line"></point>
      <point x="491" y="134" type="line"></point>
      <point x="532" y="137" type="line"></point>
      <point x="173" y="1040" type="line"></point>
      <point x="4" y="1040" type="line"></point>
      <point x="450" y="-35" type="line"></point>
      <point x="462" y="103" type="line"></point>
      <point x="278" y="-377" type="line"></point>
    </contour>
    <contour>
      <point x="519" y="1023.16" type="move" name="top"></point>
    </contour>
  </outline>
</glyph>
<glyph name="z" format="1">
  <advance width="993"></advance>
  <unicode hex="007A"></unicode>
  <outline>
    <contour>
      <point x="76" y="0" type="line"></point>
      <point x="896" y="0" type="line"></point>
      <point x="888" y="122" type="line"></point>
      <point x="207" y="122" type="line"></point>
      <point x="230" y="85" type="line"></point>
      <point x="887" y="929" type="line"></point>
      <point x="887" y="1040" type="line"></point>
      <point x="97" y="1040" type="line"></point>
      <point x="103" y="923" type="line"></point>
      <point x="755" y="923" type="line"></point>
      <point x="742" y="959" type="line"></point>
      <point x="76" y="105" type="line"></point>
    </contour>
    <contour>
      <point x="478" y="-7.36" type="move" name="bot"></point>
    </contour>
    <contour>
      <point x="513" y="1031.36" type="move" name="top"></point>
    </contour>
  </outline>
</glyph>
<glyph name="braceleft" format="1">
<<<<<<< HEAD
  <advance width="734"></advance>
  <unicode hex="007B"></unicode>
  <outline>
    <contour>
      <point x="655" y="-154" type="line"></point>
      <point x="421" y="-154"></point>
      <point x="321" y="-32"></point>
      <point x="321" y="192" type="curve" smooth="yes"></point>
      <point x="321" y="322" type="line" smooth="yes"></point>
      <point x="321" y="497"></point>
      <point x="311" y="610"></point>
      <point x="122" y="612" type="curve"></point>
      <point x="122" y="761" type="line"></point>
      <point x="309" y="761"></point>
      <point x="321" y="876"></point>
      <point x="321" y="1049" type="curve" smooth="yes"></point>
      <point x="321" y="1224" type="line" smooth="yes"></point>
      <point x="321" y="1423"></point>
      <point x="442" y="1533"></point>
      <point x="655" y="1534" type="curve"></point>
      <point x="655" y="1409" type="line"></point>
      <point x="513" y="1407"></point>
      <point x="497" y="1348"></point>
      <point x="497" y="1172" type="curve" smooth="yes"></point>
      <point x="497" y="970" type="line"></point>
      <point x="496" y="817"></point>
      <point x="451" y="735"></point>
      <point x="319" y="682" type="curve"></point>
      <point x="450" y="644"></point>
      <point x="497" y="566"></point>
      <point x="497" y="407" type="curve" smooth="yes"></point>
      <point x="497" y="205" type="line" smooth="yes"></point>
      <point x="497" y="36"></point>
      <point x="511" y="-30"></point>
      <point x="655" y="-32" type="curve"></point>
=======
  <advance width="777"></advance>
  <unicode hex="007B"></unicode>
  <outline>
    <contour>
      <point x="691" y="-149" type="line"></point>
      <point x="457" y="-149"></point>
      <point x="357" y="-32"></point>
      <point x="357" y="183" type="curve" smooth="yes"></point>
      <point x="357" y="308" type="line" smooth="yes"></point>
      <point x="357" y="476"></point>
      <point x="347" y="584"></point>
      <point x="158" y="586" type="curve"></point>
      <point x="158" y="729" type="line"></point>
      <point x="345" y="729"></point>
      <point x="357" y="840"></point>
      <point x="357" y="1006" type="curve" smooth="yes"></point>
      <point x="357" y="1174" type="line" smooth="yes"></point>
      <point x="357" y="1365"></point>
      <point x="478" y="1470"></point>
      <point x="691" y="1471" type="curve"></point>
      <point x="691" y="1351" type="line"></point>
      <point x="549" y="1349"></point>
      <point x="533" y="1293"></point>
      <point x="533" y="1124" type="curve" smooth="yes"></point>
      <point x="533" y="930" type="line"></point>
      <point x="532" y="783"></point>
      <point x="487" y="704"></point>
      <point x="355" y="653" type="curve"></point>
      <point x="486" y="617"></point>
      <point x="533" y="542"></point>
      <point x="533" y="389" type="curve" smooth="yes"></point>
      <point x="533" y="195" type="line" smooth="yes"></point>
      <point x="533" y="33"></point>
      <point x="547" y="-30"></point>
      <point x="691" y="-32" type="curve"></point>
>>>>>>> a682e5496193d53979a8881d15f4a58493c1359d
    </contour>
  </outline>
</glyph>
<glyph name="bar" format="1">
<<<<<<< HEAD
  <advance width="530"></advance>
  <unicode hex="007C"></unicode>
  <outline>
    <contour>
      <point x="198" y="-122" type="line"></point>
      <point x="198" y="1560" type="line"></point>
      <point x="344" y="1560" type="line"></point>
      <point x="344" y="-122" type="line"></point>
=======
  <advance width="604"></advance>
  <unicode hex="007C"></unicode>
  <outline>
    <contour>
      <point x="232" y="-117" type="line"></point>
      <point x="232" y="1497" type="line"></point>
      <point x="378" y="1497" type="line"></point>
      <point x="378" y="-117" type="line"></point>
>>>>>>> a682e5496193d53979a8881d15f4a58493c1359d
    </contour>
  </outline>
</glyph>
<glyph name="braceright" format="1">
  <advance width="734"/>
  <unicode hex="007D"/>
  <outline>
    <contour>
      <point x="58" y="1534" type="line"/>
      <point x="292" y="1534"/>
      <point x="392" y="1412"/>
      <point x="392" y="1188" type="curve" smooth="yes"/>
      <point x="392" y="1059" type="line" smooth="yes"/>
      <point x="392" y="883"/>
      <point x="402" y="771"/>
      <point x="591" y="769" type="curve"/>
      <point x="591" y="619" type="line"/>
      <point x="404" y="619"/>
      <point x="392" y="504"/>
      <point x="392" y="331" type="curve" smooth="yes"/>
      <point x="392" y="157" type="line" smooth="yes"/>
      <point x="392" y="-43"/>
      <point x="271" y="-153"/>
      <point x="58" y="-154" type="curve"/>
      <point x="58" y="-29" type="line"/>
      <point x="200" y="-27"/>
      <point x="216" y="33"/>
      <point x="216" y="208" type="curve" smooth="yes"/>
      <point x="216" y="410" type="line"/>
      <point x="217" y="564"/>
      <point x="262" y="646"/>
      <point x="394" y="698" type="curve"/>
      <point x="263" y="736"/>
      <point x="216" y="815"/>
      <point x="216" y="973" type="curve" smooth="yes"/>
      <point x="216" y="1175" type="line" smooth="yes"/>
      <point x="216" y="1345"/>
      <point x="202" y="1410"/>
      <point x="58" y="1412" type="curve"/>
    </contour>
  </outline>
</glyph>
<glyph name="asciitilde" format="1">
  <advance width="1172"></advance>
  <unicode hex="007E"></unicode>
  <outline>
    <contour>
      <point x="128" y="491" type="curve"></point>
      <point x="87" y="587" type="line"></point>
      <point x="132" y="698"></point>
      <point x="218" y="785"></point>
      <point x="346" y="785" type="curve" smooth="yes"></point>
      <point x="425" y="785"></point>
      <point x="482" y="762"></point>
      <point x="582" y="717" type="curve"></point>
      <point x="677" y="676"></point>
      <point x="756" y="636"></point>
      <point x="816" y="636" type="curve" smooth="yes"></point>
      <point x="898" y="636"></point>
      <point x="978" y="709"></point>
      <point x="1016" y="795" type="curve"></point>
      <point x="1063" y="706" type="line"></point>
      <point x="1014" y="582"></point>
      <point x="937" y="505"></point>
      <point x="814" y="505" type="curve" smooth="yes"></point>
      <point x="745" y="505"></point>
      <point x="673" y="534"></point>
      <point x="592" y="571" type="curve" smooth="yes"></point>
      <point x="488" y="618"></point>
      <point x="413" y="653"></point>
      <point x="343" y="653" type="curve" smooth="yes"></point>
      <point x="255" y="653"></point>
      <point x="174" y="579"></point>
    </contour>
  </outline>
</glyph>
<glyph name="cent" format="1">
  <advance width="635"></advance>
  <unicode hex="00A2"></unicode>
  <outline>
    <contour>
      <point x="402" y="1391" type="line"></point>
      <point x="291" y="1391" type="line"></point>
      <point x="238" y="1042" type="line"></point>
      <point x="402" y="1042" type="line"></point>
    </contour>
    <contour>
      <point x="221" y="-310" type="line"></point>
      <point x="335" y="-310" type="line"></point>
      <point x="385" y="62" type="line"></point>
      <point x="221" y="62" type="line"></point>
    </contour>
    <component base="c"></component>
  </outline>
</glyph>
<glyph name="sterling" format="1">
  <advance width="945"/>
  <unicode hex="00A3"/>
  <outline>
    <contour>
      <point x="12" y="0" type="line"/>
      <point x="0" y="115" type="line"/>
      <point x="172" y="132" type="line"/>
      <point x="172" y="683" type="line"/>
      <point x="0" y="683" type="line"/>
      <point x="0" y="806" type="line"/>
      <point x="172" y="806" type="line"/>
      <point x="172" y="920" type="line" smooth="yes"/>
      <point x="172" y="1183"/>
      <point x="237" y="1476"/>
      <point x="590" y="1476" type="curve" smooth="yes"/>
      <point x="734" y="1476"/>
      <point x="846" y="1421"/>
      <point x="931" y="1347" type="curve"/>
      <point x="863" y="1229" type="line"/>
      <point x="777" y="1297"/>
      <point x="692" y="1334"/>
      <point x="590" y="1334" type="curve" smooth="yes"/>
      <point x="389" y="1334"/>
      <point x="348" y="1179"/>
      <point x="348" y="949" type="curve" smooth="yes"/>
      <point x="348" y="806" type="line"/>
      <point x="731" y="806" type="line"/>
      <point x="731" y="683" type="line"/>
      <point x="348" y="683" type="line"/>
      <point x="348" y="134" type="line"/>
      <point x="945" y="134" type="line"/>
      <point x="932" y="0" type="line"/>
    </contour>
  </outline>
</glyph>
<glyph name="currency" format="1">
  <advance width="1101"/>
  <unicode hex="00A4"/>
  <outline>
    <contour>
      <point x="549" y="398" type="curve" smooth="yes"/>
      <point x="362" y="398"/>
      <point x="244" y="545"/>
      <point x="244" y="719" type="curve" smooth="yes"/>
      <point x="244" y="892"/>
      <point x="362" y="1041"/>
      <point x="549" y="1041" type="curve" smooth="yes"/>
      <point x="737" y="1041"/>
      <point x="855" y="892"/>
      <point x="855" y="719" type="curve" smooth="yes"/>
      <point x="855" y="546"/>
      <point x="738" y="398"/>
    </contour>
    <contour>
      <point x="989" y="225" type="line"/>
      <point x="1049" y="292" type="line"/>
      <point x="871" y="469" type="line"/>
      <point x="924" y="540"/>
      <point x="951" y="625"/>
      <point x="951" y="719" type="curve" smooth="yes"/>
      <point x="951" y="808"/>
      <point x="924" y="893"/>
      <point x="870" y="969" type="curve"/>
      <point x="1050" y="1145" type="line"/>
      <point x="989" y="1212" type="line"/>
      <point x="808" y="1038" type="line"/>
      <point x="737" y="1098"/>
      <point x="647" y="1133"/>
      <point x="549" y="1133" type="curve" smooth="yes"/>
      <point x="451" y="1133"/>
      <point x="361" y="1100"/>
      <point x="289" y="1039" type="curve"/>
      <point x="110" y="1212" type="line"/>
      <point x="46" y="1148" type="line"/>
      <point x="228" y="969" type="line"/>
      <point x="174" y="896"/>
      <point x="147" y="810"/>
      <point x="147" y="719" type="curve" smooth="yes"/>
      <point x="147" y="627"/>
      <point x="174" y="542"/>
      <point x="228" y="469" type="curve"/>
      <point x="47" y="293" type="line"/>
      <point x="110" y="226" type="line"/>
      <point x="290" y="400" type="line"/>
      <point x="362" y="339"/>
      <point x="449" y="307"/>
      <point x="549" y="307" type="curve" smooth="yes"/>
      <point x="648" y="307"/>
      <point x="737" y="340"/>
      <point x="808" y="399" type="curve"/>
    </contour>
  </outline>
</glyph>
<glyph name="yen" format="1">
  <advance width="809"></advance>
  <unicode hex="00A5"></unicode>
  <outline>
    <contour>
      <point x="809" y="291" type="line"></point>
      <point x="809" y="398" type="line"></point>
      <point x="446" y="398" type="line"></point>
      <point x="446" y="589" type="line"></point>
      <point x="808" y="589" type="line"></point>
      <point x="808" y="696" type="line"></point>
      <point x="2" y="696" type="line"></point>
      <point x="2" y="589" type="line"></point>
      <point x="382" y="589" type="line"></point>
      <point x="382" y="398" type="line"></point>
      <point x="0" y="398" type="line"></point>
      <point x="0" y="291" type="line"></point>
    </contour>
    <component base="Y"></component>
  </outline>
</glyph>
<glyph name="brokenbar" format="1">
<<<<<<< HEAD
  <advance width="530"></advance>
  <unicode hex="00A6"></unicode>
  <outline>
    <contour>
      <point x="205" y="825" type="line"></point>
      <point x="205" y="1584" type="line"></point>
      <point x="329" y="1584" type="line"></point>
      <point x="329" y="825" type="line"></point>
    </contour>
    <contour>
      <point x="205" y="-208" type="line"></point>
      <point x="205" y="554" type="line"></point>
      <point x="329" y="554" type="line"></point>
      <point x="329" y="-208" type="line"></point>
=======
  <advance width="604"></advance>
  <unicode hex="00A6"></unicode>
  <outline>
    <contour>
      <point x="232" y="791" type="line"></point>
      <point x="232" y="1496" type="line"></point>
      <point x="356" y="1496" type="line"></point>
      <point x="356" y="791" type="line"></point>
    </contour>
    <contour>
      <point x="232" y="-201" type="line"></point>
      <point x="232" y="507" type="line"></point>
      <point x="356" y="507" type="line"></point>
      <point x="356" y="-201" type="line"></point>
>>>>>>> a682e5496193d53979a8881d15f4a58493c1359d
    </contour>
  </outline>
</glyph>
<glyph name="section" format="1">
  <advance width="715"></advance>
  <unicode hex="00A7"></unicode>
  <outline>
    <contour>
      <point x="153" y="1191" type="curve" smooth="yes"></point>
      <point x="153" y="1288"></point>
      <point x="206" y="1349"></point>
      <point x="367" y="1349" type="curve" smooth="yes"></point>
      <point x="478" y="1349"></point>
      <point x="575" y="1309"></point>
      <point x="634" y="1280" type="curve"></point>
      <point x="673" y="1402" type="line"></point>
      <point x="582" y="1447"></point>
      <point x="476" y="1476"></point>
      <point x="350" y="1476" type="curve" smooth="yes"></point>
      <point x="123" y="1476"></point>
      <point x="0" y="1356"></point>
      <point x="0" y="1188" type="curve" smooth="yes"></point>
      <point x="0" y="1108"></point>
      <point x="19" y="1043"></point>
      <point x="84" y="990" type="curve"></point>
      <point x="29" y="940"></point>
      <point x="0" y="869"></point>
      <point x="0" y="789" type="curve" smooth="yes"></point>
      <point x="0" y="660"></point>
      <point x="48" y="573"></point>
      <point x="249" y="509" type="curve" smooth="yes"></point>
      <point x="365" y="472" type="line" smooth="yes"></point>
      <point x="524" y="421"></point>
      <point x="568" y="369"></point>
      <point x="568" y="290" type="curve" smooth="yes"></point>
      <point x="568" y="170"></point>
      <point x="493" y="105"></point>
      <point x="366" y="105" type="curve" smooth="yes"></point>
      <point x="250" y="105"></point>
      <point x="146" y="137"></point>
      <point x="23" y="196" type="curve"></point>
      <point x="23" y="58" type="line"></point>
      <point x="126" y="9"></point>
      <point x="244" y="-20"></point>
      <point x="354" y="-20" type="curve" smooth="yes"></point>
      <point x="548" y="-20"></point>
      <point x="715" y="69"></point>
      <point x="715" y="287" type="curve" smooth="yes"></point>
      <point x="715" y="375"></point>
      <point x="699" y="438"></point>
      <point x="648" y="490" type="curve"></point>
      <point x="690" y="538"></point>
      <point x="715" y="603"></point>
      <point x="715" y="687" type="curve" smooth="yes"></point>
      <point x="715" y="849"></point>
      <point x="662" y="930"></point>
      <point x="425" y="1004" type="curve" smooth="yes"></point>
      <point x="320" y="1037" type="line" smooth="yes"></point>
      <point x="184" y="1079"></point>
      <point x="153" y="1105"></point>
    </contour>
    <contour>
      <point x="218" y="920" type="curve"></point>
      <point x="228" y="915"></point>
      <point x="238" y="911"></point>
      <point x="249" y="908" type="curve" smooth="yes"></point>
      <point x="365" y="871" type="line" smooth="yes"></point>
      <point x="524" y="821"></point>
      <point x="568" y="768"></point>
      <point x="568" y="690" type="curve" smooth="yes"></point>
      <point x="568" y="638"></point>
      <point x="554" y="595"></point>
      <point x="528" y="566" type="curve"></point>
      <point x="498" y="579"></point>
      <point x="464" y="591"></point>
      <point x="425" y="604" type="curve" smooth="yes"></point>
      <point x="320" y="636" type="line" smooth="yes"></point>
      <point x="184" y="680"></point>
      <point x="153" y="705"></point>
      <point x="153" y="792" type="curve" smooth="yes"></point>
      <point x="153" y="850"></point>
      <point x="170" y="892"></point>
    </contour>
  </outline>
</glyph>
<glyph name="dieresis" format="1">
  <advance width="548"/>
  <unicode hex="00A8"/>
  <unicode hex="0308"/>
  <outline>
    <contour>
      <point x="93" y="1476" type="curve" smooth="yes"/>
      <point x="145" y="1476"/>
      <point x="186" y="1437"/>
      <point x="186" y="1380" type="curve" smooth="yes"/>
      <point x="186" y="1324"/>
      <point x="145" y="1284"/>
      <point x="93" y="1284" type="curve" smooth="yes"/>
      <point x="39" y="1284"/>
      <point x="0" y="1324"/>
      <point x="0" y="1380" type="curve" smooth="yes"/>
      <point x="0" y="1437"/>
      <point x="39" y="1476"/>
    </contour>
    <contour>
      <point x="548" y="1380" type="curve" smooth="yes"/>
      <point x="548" y="1324"/>
      <point x="508" y="1284"/>
      <point x="455" y="1284" type="curve" smooth="yes"/>
      <point x="402" y="1284"/>
      <point x="363" y="1324"/>
      <point x="363" y="1380" type="curve" smooth="yes"/>
      <point x="363" y="1437"/>
      <point x="402" y="1476"/>
      <point x="455" y="1476" type="curve" smooth="yes"/>
      <point x="508" y="1476"/>
      <point x="548" y="1437"/>
    </contour>
    <contour>
      <point x="281" y="1054.55" type="move" name="_top"/>
    </contour>
  </outline>
</glyph>
<glyph name="copyright" format="1">
  <advance width="1641"></advance>
  <unicode hex="00A9"></unicode>
  <outline>
    <contour>
      <point x="701" y="-20" type="curve" smooth="yes"></point>
      <point x="1083" y="-20"></point>
      <point x="1467" y="227"></point>
      <point x="1467" y="698" type="curve" smooth="yes"></point>
      <point x="1467" y="1171"></point>
      <point x="1082" y="1416"></point>
      <point x="701" y="1416" type="curve" smooth="yes"></point>
      <point x="323" y="1416"></point>
      <point x="-43" y="1171"></point>
      <point x="-43" y="698" type="curve" smooth="yes"></point>
      <point x="-43" y="227"></point>
      <point x="323" y="-20"></point>
    </contour>
    <contour>
      <point x="701" y="61" type="curve" smooth="yes"></point>
      <point x="367" y="61"></point>
      <point x="46" y="283"></point>
      <point x="46" y="698" type="curve" smooth="yes"></point>
      <point x="46" y="1114"></point>
      <point x="367" y="1333"></point>
      <point x="701" y="1333" type="curve" smooth="yes"></point>
      <point x="1037" y="1333"></point>
      <point x="1361" y="1114"></point>
      <point x="1361" y="698" type="curve" smooth="yes"></point>
      <point x="1361" y="284"></point>
      <point x="1037" y="61"></point>
    </contour>
    <contour>
      <point x="721" y="225" type="curve" smooth="yes"></point>
      <point x="821" y="225"></point>
      <point x="918" y="251"></point>
      <point x="1004" y="303" type="curve"></point>
      <point x="970" y="384" type="line"></point>
      <point x="884" y="333"></point>
      <point x="805" y="316"></point>
      <point x="725" y="316" type="curve" smooth="yes"></point>
      <point x="524" y="316"></point>
      <point x="365" y="449"></point>
      <point x="365" y="700" type="curve" smooth="yes"></point>
      <point x="365" y="920"></point>
      <point x="511" y="1072"></point>
      <point x="717" y="1074" type="curve" smooth="yes"></point>
      <point x="803" y="1075"></point>
      <point x="884" y="1050"></point>
      <point x="958" y="999" type="curve"></point>
      <point x="1001" y="1082" type="line"></point>
      <point x="913" y="1139"></point>
      <point x="815" y="1167"></point>
      <point x="713" y="1167" type="curve" smooth="yes"></point>
      <point x="456" y="1167"></point>
      <point x="243" y="965"></point>
      <point x="243" y="696" type="curve" smooth="yes"></point>
      <point x="243" y="412"></point>
      <point x="462" y="225"></point>
    </contour>
  </outline>
</glyph>
<glyph name="guillemotleft" format="1">
  <advance width="981"></advance>
  <unicode hex="00AB"></unicode>
  <outline>
    <contour>
      <point x="378" y="148" type="line"></point>
      <point x="535" y="148" type="line"></point>
      <point x="259" y="552" type="line"></point>
      <point x="543" y="953" type="line"></point>
      <point x="382" y="953" type="line"></point>
      <point x="94" y="549" type="line"></point>
    </contour>
    <contour>
      <point x="731" y="148" type="line"></point>
      <point x="888" y="148" type="line"></point>
      <point x="611" y="552" type="line"></point>
      <point x="895" y="953" type="line"></point>
      <point x="734" y="953" type="line"></point>
      <point x="447" y="549" type="line"></point>
    </contour>
  </outline>
</glyph>
<glyph name="logicalnot" format="1">
<<<<<<< HEAD
  <advance width="1183"></advance>
  <unicode hex="00AC"></unicode>
  <outline>
    <contour>
      <point x="913" y="253" type="line"></point>
      <point x="1034" y="253" type="line"></point>
      <point x="1034" y="804" type="line"></point>
      <point x="78" y="804" type="line"></point>
      <point x="78" y="676" type="line"></point>
      <point x="913" y="676" type="line"></point>
=======
  <advance width="1209"></advance>
  <unicode hex="00AC"></unicode>
  <outline>
    <contour>
      <point x="917" y="235" type="line"></point>
      <point x="1038" y="235" type="line"></point>
      <point x="1038" y="764" type="line"></point>
      <point x="82" y="764" type="line"></point>
      <point x="82" y="641" type="line"></point>
      <point x="917" y="641" type="line"></point>
>>>>>>> a682e5496193d53979a8881d15f4a58493c1359d
    </contour>
  </outline>
</glyph>
<glyph name="uni00AD" format="1">
<<<<<<< HEAD
  <advance width="979"></advance>
  <unicode hex="00AD"></unicode>
  <outline>
    <contour>
      <point x="109" y="205" type="line"></point>
      <point x="851" y="205" type="line"></point>
      <point x="851" y="341" type="line"></point>
      <point x="109" y="341" type="line"></point>
=======
  <advance width="993"></advance>
  <unicode hex="00AD"></unicode>
  <outline>
    <contour>
      <point x="113" y="179" type="line"></point>
      <point x="855" y="179" type="line"></point>
      <point x="855" y="309" type="line"></point>
      <point x="113" y="309" type="line"></point>
>>>>>>> a682e5496193d53979a8881d15f4a58493c1359d
    </contour>
  </outline>
</glyph>
<glyph name="registered" format="1">
  <advance width="1485"></advance>
  <unicode hex="00AE"></unicode>
  <outline>
    <contour>
      <point x="741" y="-20" type="curve" smooth="yes"></point>
      <point x="1112" y="-20"></point>
      <point x="1485" y="236"></point>
      <point x="1485" y="728" type="curve" smooth="yes"></point>
      <point x="1485" y="1219"></point>
      <point x="1112" y="1476"></point>
      <point x="741" y="1476" type="curve" smooth="yes"></point>
      <point x="371" y="1476"></point>
      <point x="0" y="1219"></point>
      <point x="0" y="728" type="curve" smooth="yes"></point>
      <point x="0" y="236"></point>
      <point x="371" y="-20"></point>
    </contour>
    <contour>
      <point x="741" y="64" type="curve" smooth="yes"></point>
      <point x="415" y="64"></point>
      <point x="103" y="295"></point>
      <point x="103" y="728" type="curve" smooth="yes"></point>
      <point x="103" y="1160"></point>
      <point x="415" y="1391"></point>
      <point x="741" y="1391" type="curve" smooth="yes"></point>
      <point x="1068" y="1391"></point>
      <point x="1383" y="1159"></point>
      <point x="1383" y="728" type="curve" smooth="yes"></point>
      <point x="1383" y="295"></point>
      <point x="1068" y="64"></point>
    </contour>
    <contour>
      <point x="563" y="818" type="line"></point>
      <point x="563" y="1111" type="line"></point>
      <point x="748" y="1111" type="line" smooth="yes"></point>
      <point x="907" y="1111"></point>
      <point x="966" y="1093"></point>
      <point x="966" y="968" type="curve" smooth="yes"></point>
      <point x="966" y="861"></point>
      <point x="923" y="818"></point>
      <point x="784" y="818" type="curve" smooth="yes"></point>
    </contour>
    <contour>
      <point x="452" y="292" type="line"></point>
      <point x="562" y="292" type="line"></point>
      <point x="562" y="721" type="line"></point>
      <point x="775" y="721" type="line"></point>
      <point x="784" y="710"></point>
      <point x="983" y="292"></point>
      <point x="983" y="292" type="curve"></point>
      <point x="1106" y="292" type="line"></point>
      <point x="1106" y="292"></point>
      <point x="900" y="713"></point>
      <point x="884" y="735" type="curve"></point>
      <point x="1013" y="749"></point>
      <point x="1073" y="837"></point>
      <point x="1073" y="972" type="curve" smooth="yes"></point>
      <point x="1073" y="1134"></point>
      <point x="993" y="1209"></point>
      <point x="764" y="1209" type="curve" smooth="yes"></point>
      <point x="452" y="1209" type="line"></point>
    </contour>
  </outline>
</glyph>
<glyph name="macron" format="1">
<<<<<<< HEAD
  <advance width="857"></advance>
  <unicode hex="00AF"></unicode>
  <outline>
    <contour>
      <point x="224" y="1231" type="line"></point>
      <point x="809" y="1231" type="line"></point>
      <point x="809" y="1353" type="line"></point>
      <point x="224" y="1353" type="line"></point>
    </contour>
    <contour>
      <point x="519" y="1042.4" type="move" name="_top"></point>
    </contour>
    <contour>
      <point x="488" y="1289.425" type="move" name="_mid"></point>
=======
  <advance width="864"></advance>
  <unicode hex="00AF"></unicode>
  <outline>
    <contour>
      <point x="229" y="1204" type="line"></point>
      <point x="814" y="1204" type="line"></point>
      <point x="814" y="1322" type="line"></point>
      <point x="229" y="1322" type="line"></point>
    </contour>
    <contour>
      <point x="524" y="1023.384" type="move" name="_top"></point>
    </contour>
    <contour>
      <point x="493" y="1260.528" type="move" name="_mid"></point>
>>>>>>> a682e5496193d53979a8881d15f4a58493c1359d
    </contour>
  </outline>
</glyph>
<glyph name="degree" format="1">
  <advance width="816"></advance>
  <unicode hex="00B0"></unicode>
  <outline>
    <contour>
<<<<<<< HEAD
      <point x="402" y="889" type="curve" smooth="yes"></point>
      <point x="566" y="889"></point>
      <point x="703" y="1016"></point>
      <point x="703" y="1184" type="curve" smooth="yes"></point>
      <point x="703" y="1357"></point>
      <point x="562" y="1476"></point>
      <point x="402" y="1476" type="curve" smooth="yes"></point>
      <point x="245" y="1476"></point>
      <point x="103" y="1357"></point>
      <point x="103" y="1184" type="curve" smooth="yes"></point>
      <point x="103" y="1009"></point>
      <point x="245" y="889"></point>
    </contour>
    <contour>
      <point x="402" y="985" type="curve" smooth="yes"></point>
      <point x="296" y="985"></point>
      <point x="211" y="1065"></point>
      <point x="211" y="1183" type="curve" smooth="yes"></point>
      <point x="211" y="1300"></point>
      <point x="298" y="1380"></point>
      <point x="403" y="1380" type="curve" smooth="yes"></point>
      <point x="509" y="1380"></point>
      <point x="595" y="1300"></point>
      <point x="595" y="1183" type="curve" smooth="yes"></point>
      <point x="595" y="1066"></point>
      <point x="509" y="985"></point>
=======
      <point x="406" y="854" type="curve" smooth="yes"></point>
      <point x="570" y="854"></point>
      <point x="707" y="976"></point>
      <point x="707" y="1137" type="curve" smooth="yes"></point>
      <point x="707" y="1303"></point>
      <point x="566" y="1417"></point>
      <point x="406" y="1417" type="curve" smooth="yes"></point>
      <point x="249" y="1417"></point>
      <point x="107" y="1303"></point>
      <point x="107" y="1137" type="curve" smooth="yes"></point>
      <point x="107" y="969"></point>
      <point x="249" y="854"></point>
    </contour>
    <contour>
      <point x="406" y="946" type="curve" smooth="yes"></point>
      <point x="300" y="946"></point>
      <point x="215" y="1023"></point>
      <point x="215" y="1136" type="curve" smooth="yes"></point>
      <point x="215" y="1248"></point>
      <point x="302" y="1325"></point>
      <point x="407" y="1325" type="curve" smooth="yes"></point>
      <point x="513" y="1325"></point>
      <point x="599" y="1248"></point>
      <point x="599" y="1136" type="curve" smooth="yes"></point>
      <point x="599" y="1024"></point>
      <point x="513" y="946"></point>
>>>>>>> a682e5496193d53979a8881d15f4a58493c1359d
    </contour>
  </outline>
</glyph>
<glyph name="plusminus" format="1">
<<<<<<< HEAD
  <advance width="1101"></advance>
  <unicode hex="00B1"></unicode>
  <outline>
    <contour>
      <point x="471" y="212" type="line"></point>
      <point x="597" y="212" type="line"></point>
      <point x="597" y="610" type="line"></point>
      <point x="962" y="610" type="line"></point>
      <point x="962" y="729" type="line"></point>
      <point x="596" y="729" type="line"></point>
      <point x="596" y="1117" type="line"></point>
      <point x="471" y="1117" type="line"></point>
      <point x="471" y="729" type="line"></point>
      <point x="99" y="729" type="line"></point>
      <point x="99" y="610" type="line"></point>
      <point x="471" y="610" type="line"></point>
    </contour>
    <contour>
      <point x="78" y="0" type="line"></point>
      <point x="78" y="118" type="line"></point>
      <point x="1007" y="118" type="line"></point>
      <point x="1007" y="0" type="line"></point>
=======
  <advance width="1080"></advance>
  <unicode hex="00B1"></unicode>
  <outline>
    <contour>
      <point x="475" y="218" type="line"></point>
      <point x="601" y="218" type="line"></point>
      <point x="601" y="586" type="line"></point>
      <point x="966" y="586" type="line"></point>
      <point x="966" y="700" type="line"></point>
      <point x="600" y="700" type="line"></point>
      <point x="600" y="1060" type="line"></point>
      <point x="475" y="1060" type="line"></point>
      <point x="475" y="700" type="line"></point>
      <point x="103" y="700" type="line"></point>
      <point x="103" y="586" type="line"></point>
      <point x="475" y="586" type="line"></point>
    </contour>
    <contour>
      <point x="82" y="0" type="line"></point>
      <point x="82" y="116" type="line"></point>
      <point x="1011" y="116" type="line"></point>
      <point x="1011" y="0" type="line"></point>
>>>>>>> a682e5496193d53979a8881d15f4a58493c1359d
    </contour>
  </outline>
</glyph>
<glyph name="uni00B2" format="1">
  <advance width="775"></advance>
  <unicode hex="00B2"></unicode>
  <outline>
    <contour>
      <point x="646" y="649" type="line"></point>
      <point x="131" y="649" type="line"></point>
      <point x="131" y="741" type="line"></point>
      <point x="371" y="988"></point>
      <point x="545" y="1144"></point>
      <point x="545" y="1269" type="curve" smooth="yes"></point>
      <point x="545" y="1378"></point>
      <point x="477" y="1425"></point>
      <point x="400" y="1425" type="curve" smooth="yes"></point>
      <point x="318" y="1425"></point>
      <point x="238" y="1388"></point>
      <point x="174" y="1300" type="curve"></point>
      <point x="103" y="1360" type="line"></point>
      <point x="154" y="1459"></point>
      <point x="275" y="1525"></point>
      <point x="388" y="1525" type="curve" smooth="yes"></point>
      <point x="543" y="1525"></point>
      <point x="657" y="1441"></point>
      <point x="657" y="1278" type="curve" smooth="yes"></point>
      <point x="657" y="1085"></point>
      <point x="486" y="947"></point>
      <point x="274" y="748" type="curve"></point>
      <point x="646" y="748" type="line"></point>
    </contour>
  </outline>
</glyph>
<glyph name="uni00B3" format="1">
<<<<<<< HEAD
  <advance width="775"></advance>
  <unicode hex="00B3"></unicode>
  <outline>
    <contour>
      <point x="385" y="615" type="curve" smooth="yes"></point>
      <point x="530" y="615"></point>
      <point x="646" y="712"></point>
      <point x="646" y="873" type="curve" smooth="yes"></point>
      <point x="646" y="973"></point>
      <point x="588" y="1053"></point>
      <point x="483" y="1084" type="curve"></point>
      <point x="589" y="1111"></point>
      <point x="627" y="1198"></point>
      <point x="627" y="1262" type="curve" smooth="yes"></point>
      <point x="627" y="1419"></point>
      <point x="505" y="1496"></point>
      <point x="380" y="1496" type="curve" smooth="yes"></point>
      <point x="293" y="1496"></point>
      <point x="178" y="1461"></point>
      <point x="122" y="1399" type="curve"></point>
      <point x="176" y="1310" type="line"></point>
      <point x="216" y="1351"></point>
      <point x="308" y="1381"></point>
      <point x="375" y="1381" type="curve" smooth="yes"></point>
      <point x="445" y="1381"></point>
      <point x="496" y="1342"></point>
      <point x="496" y="1260" type="curve" smooth="yes"></point>
      <point x="496" y="1177"></point>
      <point x="419" y="1135"></point>
      <point x="319" y="1135" type="curve" smooth="yes"></point>
      <point x="248" y="1135" type="line"></point>
      <point x="248" y="1019" type="line"></point>
      <point x="322" y="1019" type="line" smooth="yes"></point>
      <point x="432" y="1019"></point>
      <point x="515" y="972"></point>
      <point x="515" y="877" type="curve" smooth="yes"></point>
      <point x="515" y="778"></point>
      <point x="452" y="731"></point>
      <point x="373" y="731" type="curve" smooth="yes"></point>
      <point x="311" y="731"></point>
      <point x="222" y="757"></point>
      <point x="173" y="803" type="curve"></point>
      <point x="124" y="704" type="line"></point>
      <point x="184" y="641"></point>
      <point x="303" y="615"></point>
=======
  <advance width="777"></advance>
  <unicode hex="00B3"></unicode>
  <outline>
    <contour>
      <point x="394" y="604" type="curve" smooth="yes"></point>
      <point x="539" y="604"></point>
      <point x="655" y="697"></point>
      <point x="655" y="851" type="curve" smooth="yes"></point>
      <point x="655" y="947"></point>
      <point x="597" y="1024"></point>
      <point x="492" y="1054" type="curve"></point>
      <point x="598" y="1080"></point>
      <point x="636" y="1163"></point>
      <point x="636" y="1225" type="curve" smooth="yes"></point>
      <point x="636" y="1375"></point>
      <point x="514" y="1449"></point>
      <point x="389" y="1449" type="curve" smooth="yes"></point>
      <point x="302" y="1449"></point>
      <point x="187" y="1416"></point>
      <point x="131" y="1356" type="curve"></point>
      <point x="185" y="1271" type="line"></point>
      <point x="225" y="1310"></point>
      <point x="317" y="1339"></point>
      <point x="384" y="1339" type="curve" smooth="yes"></point>
      <point x="454" y="1339"></point>
      <point x="505" y="1302"></point>
      <point x="505" y="1223" type="curve" smooth="yes"></point>
      <point x="505" y="1143"></point>
      <point x="428" y="1103"></point>
      <point x="328" y="1103" type="curve" smooth="yes"></point>
      <point x="257" y="1103" type="line"></point>
      <point x="257" y="991" type="line"></point>
      <point x="331" y="991" type="line" smooth="yes"></point>
      <point x="441" y="991"></point>
      <point x="524" y="946"></point>
      <point x="524" y="855" type="curve" smooth="yes"></point>
      <point x="524" y="760"></point>
      <point x="461" y="715"></point>
      <point x="382" y="715" type="curve" smooth="yes"></point>
      <point x="320" y="715"></point>
      <point x="231" y="740"></point>
      <point x="182" y="784" type="curve"></point>
      <point x="133" y="689" type="line"></point>
      <point x="193" y="629"></point>
      <point x="312" y="604"></point>
>>>>>>> a682e5496193d53979a8881d15f4a58493c1359d
    </contour>
  </outline>
</glyph>
<glyph name="acute" format="1">
  <advance width="648"></advance>
  <unicode hex="00B4"></unicode>
  <unicode hex="0301"></unicode>
  <outline>
    <contour>
      <point x="168" y="1020" type="line"></point>
      <point x="265" y="1020" type="line"></point>
      <point x="557" y="1416" type="line"></point>
      <point x="351" y="1416" type="line"></point>
    </contour>
    <contour>
      <point x="211" y="928.44" type="move" name="_top"></point>
    </contour>
  </outline>
</glyph>
<glyph name="paragraph" format="1">
  <advance width="922"></advance>
  <unicode hex="00B6"></unicode>
  <outline>
    <contour>
      <point x="382" y="-20" type="line"></point>
      <point x="506" y="-20" type="line"></point>
      <point x="506" y="1334" type="line"></point>
      <point x="682" y="1334" type="line"></point>
      <point x="682" y="-20" type="line"></point>
      <point x="806" y="-20" type="line"></point>
      <point x="806" y="1334" type="line"></point>
      <point x="922" y="1334" type="line"></point>
      <point x="922" y="1456" type="line"></point>
      <point x="413" y="1456" type="line" smooth="yes"></point>
      <point x="93" y="1456"></point>
      <point x="0" y="1276"></point>
      <point x="0" y="1117" type="curve" smooth="yes"></point>
      <point x="0" y="942"></point>
      <point x="101" y="771"></point>
      <point x="382" y="771" type="curve"></point>
    </contour>
  </outline>
</glyph>
<glyph name="periodcentered" format="1">
  <advance width="571"/>
  <unicode hex="00B7"/>
  <outline>
    <contour>
      <point x="290" y="732" type="curve" smooth="yes"/>
      <point x="353" y="732"/>
      <point x="401" y="688"/>
      <point x="401" y="624" type="curve" smooth="yes"/>
      <point x="401" y="559"/>
      <point x="353" y="514"/>
      <point x="290" y="514" type="curve" smooth="yes"/>
      <point x="226" y="514"/>
      <point x="179" y="559"/>
      <point x="179" y="624" type="curve" smooth="yes"/>
      <point x="179" y="688"/>
      <point x="226" y="732"/>
    </contour>
    <contour>
      <point x="291" y="622.65" type="move" name="_mid"/>
    </contour>
  </outline>
</glyph>
<glyph name="cedilla" format="1">
  <advance width="604"></advance>
  <unicode hex="00B8"></unicode>
  <outline>
    <contour>
      <point x="229" y="-433" type="line"></point>
      <point x="393" y="-458" type="line"></point>
      <point x="461" y="0" type="line"></point>
      <point x="395" y="0" type="line"></point>
    </contour>
    <contour>
      <point x="424" y="0" type="move" name="_bot"></point>
    </contour>
  </outline>
</glyph>
<glyph name="uni00B9" format="1">
<<<<<<< HEAD
  <advance width="734"></advance>
  <unicode hex="00B9"></unicode>
  <outline>
    <contour>
      <point x="158" y="598" type="line"></point>
      <point x="589" y="598" type="line"></point>
      <point x="589" y="710" type="line"></point>
      <point x="450" y="710" type="line"></point>
      <point x="450" y="1482" type="line"></point>
      <point x="340" y="1482" type="line"></point>
      <point x="298" y="1442"></point>
      <point x="184" y="1391"></point>
      <point x="148" y="1378" type="curve"></point>
      <point x="148" y="1264" type="line"></point>
      <point x="182" y="1277"></point>
      <point x="275" y="1314"></point>
      <point x="312" y="1338" type="curve"></point>
      <point x="312" y="710" type="line"></point>
      <point x="158" y="710" type="line"></point>
=======
  <advance width="777"></advance>
  <unicode hex="00B9"></unicode>
  <outline>
    <contour>
      <point x="166" y="587" type="line"></point>
      <point x="597" y="587" type="line"></point>
      <point x="597" y="694" type="line"></point>
      <point x="458" y="694" type="line"></point>
      <point x="458" y="1435" type="line"></point>
      <point x="348" y="1435" type="line"></point>
      <point x="306" y="1397"></point>
      <point x="192" y="1348"></point>
      <point x="156" y="1335" type="curve"></point>
      <point x="156" y="1226" type="line"></point>
      <point x="190" y="1239"></point>
      <point x="283" y="1274"></point>
      <point x="320" y="1297" type="curve"></point>
      <point x="320" y="694" type="line"></point>
      <point x="166" y="694" type="line"></point>
>>>>>>> a682e5496193d53979a8881d15f4a58493c1359d
    </contour>
  </outline>
</glyph>
<glyph name="ordmasculine" format="1">
  <advance width="672"/>
  <unicode hex="00BA"/>
  <outline>
    <contour>
      <point x="672" y="1092" type="curve" smooth="yes"/>
      <point x="672" y="1317"/>
      <point x="560" y="1477"/>
      <point x="336" y="1477" type="curve" smooth="yes"/>
      <point x="118" y="1477"/>
      <point x="0" y="1314"/>
      <point x="0" y="1092" type="curve" smooth="yes"/>
      <point x="0" y="875"/>
      <point x="118" y="713"/>
      <point x="336" y="713" type="curve" smooth="yes"/>
      <point x="542" y="713"/>
      <point x="672" y="878"/>
    </contour>
    <contour>
      <point x="137" y="1092" type="curve" smooth="yes"/>
      <point x="137" y="1265"/>
      <point x="204" y="1370"/>
      <point x="336" y="1370" type="curve" smooth="yes"/>
      <point x="472" y="1370"/>
      <point x="542" y="1263"/>
      <point x="542" y="1089" type="curve" smooth="yes"/>
      <point x="542" y="920"/>
      <point x="476" y="820"/>
      <point x="336" y="820" type="curve" smooth="yes"/>
      <point x="203" y="820"/>
      <point x="137" y="921"/>
    </contour>
  </outline>
</glyph>
<glyph name="guillemotright" format="1">
  <advance width="950"></advance>
  <unicode hex="00BB"></unicode>
  <outline>
    <contour>
      <point x="228" y="135" type="line"></point>
      <point x="512" y="520" type="line"></point>
      <point x="225" y="908" type="line"></point>
      <point x="64" y="908" type="line"></point>
      <point x="348" y="523" type="line"></point>
      <point x="71" y="135" type="line"></point>
    </contour>
    <contour>
      <point x="581" y="135" type="line"></point>
      <point x="865" y="520" type="line"></point>
      <point x="577" y="908" type="line"></point>
      <point x="416" y="908" type="line"></point>
      <point x="700" y="523" type="line"></point>
      <point x="424" y="135" type="line"></point>
    </contour>
  </outline>
</glyph>
<glyph name="onequarter" format="1">
  <advance width="1524"></advance>
  <unicode hex="00BC"></unicode>
  <outline>
    <contour>
      <point x="950" y="297" type="line"></point>
      <point x="1215" y="690" type="line"></point>
      <point x="1215" y="297" type="line"></point>
    </contour>
    <contour>
      <point x="229" y="0" type="line"></point>
      <point x="361" y="0" type="line"></point>
      <point x="1268" y="1476" type="line"></point>
      <point x="1137" y="1476" type="line"></point>
    </contour>
    <contour>
      <point x="1216" y="0" type="line"></point>
      <point x="1343" y="0" type="line"></point>
      <point x="1343" y="191" type="line"></point>
      <point x="1465" y="191" type="line"></point>
      <point x="1457" y="297" type="line"></point>
      <point x="1344" y="297" type="line"></point>
      <point x="1344" y="857" type="line"></point>
      <point x="1206" y="857" type="line"></point>
      <point x="811" y="284" type="line"></point>
      <point x="811" y="191" type="line"></point>
      <point x="1216" y="191" type="line"></point>
    </contour>
    <contour>
      <point x="-11" y="593" type="line"></point>
      <point x="415" y="593" type="line"></point>
      <point x="415" y="705" type="line"></point>
      <point x="276" y="705" type="line"></point>
      <point x="276" y="1476" type="line"></point>
      <point x="166" y="1476" type="line"></point>
      <point x="124" y="1437"></point>
      <point x="10" y="1386"></point>
      <point x="-20" y="1373" type="curve"></point>
      <point x="-20" y="1259" type="line"></point>
      <point x="8" y="1272"></point>
      <point x="101" y="1309"></point>
      <point x="138" y="1333" type="curve"></point>
      <point x="138" y="705" type="line"></point>
      <point x="-11" y="705" type="line"></point>
    </contour>
  </outline>
</glyph>
<glyph name="onehalf" format="1">
  <advance width="1617"></advance>
  <unicode hex="00BD"></unicode>
  <outline>
    <contour>
      <point x="2" y="593.0" type="line"></point>
      <point x="431" y="593.0" type="line"></point>
      <point x="431" y="705.0" type="line"></point>
      <point x="292" y="705.0" type="line"></point>
      <point x="292" y="1476.0" type="line"></point>
      <point x="182" y="1476.0" type="line"></point>
      <point x="140" y="1437.0"></point>
      <point x="26" y="1386.0"></point>
      <point x="-7" y="1373.0" type="curve"></point>
      <point x="-7" y="1259.0" type="line"></point>
      <point x="24" y="1272.0"></point>
      <point x="117" y="1309.0"></point>
      <point x="154" y="1333.0" type="curve"></point>
      <point x="154" y="705.0" type="line"></point>
      <point x="2" y="705.0" type="line"></point>
    </contour>
    <contour>
      <point x="245" y="0.0" type="line"></point>
      <point x="377" y="0.0" type="line"></point>
      <point x="1284" y="1476.0" type="line"></point>
      <point x="1153" y="1476.0" type="line"></point>
    </contour>
    <contour>
      <point x="1012" y="0" type="line"></point>
      <point x="1533" y="0" type="line"></point>
      <point x="1539" y="114" type="line"></point>
      <point x="1189" y="114" type="line"></point>
      <point x="1360" y="281" type="line" smooth="yes"></point>
      <point x="1484" y="402"></point>
      <point x="1547" y="474"></point>
      <point x="1547" y="615" type="curve" smooth="yes"></point>
      <point x="1547" y="782"></point>
      <point x="1416" y="871"></point>
      <point x="1264" y="871" type="curve" smooth="yes"></point>
      <point x="1149" y="871"></point>
      <point x="1024" y="812"></point>
      <point x="971" y="716" type="curve"></point>
      <point x="1043" y="637" type="line"></point>
      <point x="1101" y="716"></point>
      <point x="1184" y="751"></point>
      <point x="1262" y="751" type="curve" smooth="yes"></point>
      <point x="1344" y="751"></point>
      <point x="1415" y="705"></point>
      <point x="1415" y="607" type="curve" smooth="yes"></point>
      <point x="1415" y="536"></point>
      <point x="1375" y="474"></point>
      <point x="1260" y="358" type="curve" smooth="yes"></point>
      <point x="1012" y="110" type="line"></point>
    </contour>
  </outline>
</glyph>
<glyph name="threequarters" format="1">
  <advance width="1346"></advance>
  <unicode hex="00BE"></unicode>
  <outline>
    <contour>
      <point x="91" y="0.0" type="line"></point>
      <point x="223" y="0.0" type="line"></point>
      <point x="1130" y="1476.0" type="line"></point>
      <point x="999" y="1476.0" type="line"></point>
    </contour>
    <contour>
      <point x="1078" y="0.0" type="line"></point>
      <point x="1205" y="0.0" type="line"></point>
      <point x="1205" y="191.0" type="line"></point>
      <point x="1327" y="191.0" type="line"></point>
      <point x="1319" y="297.0" type="line"></point>
      <point x="1206" y="297.0" type="line"></point>
      <point x="1206" y="857.0" type="line"></point>
      <point x="1068" y="857.0" type="line"></point>
      <point x="673" y="284.0" type="line"></point>
      <point x="673" y="191.0" type="line"></point>
      <point x="1078" y="191.0" type="line"></point>
    </contour>
    <contour>
      <point x="812" y="297.0" type="line"></point>
      <point x="1077" y="690.0" type="line"></point>
      <point x="1077" y="297.0" type="line"></point>
    </contour>
    <contour>
      <point x="127" y="684" type="curve" smooth="yes"></point>
      <point x="260" y="684"></point>
      <point x="366" y="772"></point>
      <point x="366" y="917" type="curve" smooth="yes"></point>
      <point x="366" y="1006"></point>
      <point x="312" y="1078"></point>
      <point x="217" y="1107" type="curve"></point>
      <point x="313" y="1130"></point>
      <point x="348" y="1209"></point>
      <point x="348" y="1266" type="curve" smooth="yes"></point>
      <point x="348" y="1407"></point>
      <point x="237" y="1477"></point>
      <point x="123" y="1477" type="curve" smooth="yes"></point>
      <point x="43" y="1477"></point>
      <point x="-55" y="1445"></point>
      <point x="-106" y="1389" type="curve"></point>
      <point x="-56" y="1309" type="line"></point>
      <point x="-21" y="1346"></point>
      <point x="57" y="1373"></point>
      <point x="118" y="1373" type="curve" smooth="yes"></point>
      <point x="182" y="1373"></point>
      <point x="228" y="1338"></point>
      <point x="228" y="1264" type="curve" smooth="yes"></point>
      <point x="228" y="1189"></point>
      <point x="158" y="1151"></point>
      <point x="66" y="1151" type="curve" smooth="yes"></point>
      <point x="2" y="1151" type="line"></point>
      <point x="2" y="1047" type="line"></point>
      <point x="69" y="1047" type="line" smooth="yes"></point>
      <point x="170" y="1047"></point>
      <point x="246" y="1005"></point>
      <point x="246" y="921" type="curve" smooth="yes"></point>
      <point x="246" y="830"></point>
      <point x="188" y="789"></point>
      <point x="116" y="789" type="curve" smooth="yes"></point>
      <point x="60" y="789"></point>
      <point x="-16" y="813"></point>
      <point x="-59" y="853" type="curve"></point>
      <point x="-104" y="765" type="line"></point>
      <point x="-49" y="708"></point>
      <point x="52" y="684"></point>
    </contour>
  </outline>
</glyph>
<glyph name="AE" format="1">
  <advance width="1512"></advance>
  <unicode hex="00C6"></unicode>
  <outline>
    <contour>
      <point x="688" y="0" type="line"></point>
      <point x="1478" y="0" type="line"></point>
      <point x="1490" y="132" type="line"></point>
      <point x="857" y="132" type="line"></point>
      <point x="857" y="668" type="line"></point>
      <point x="1407" y="668" type="line"></point>
      <point x="1407" y="799" type="line"></point>
      <point x="857" y="799" type="line"></point>
      <point x="857" y="1268" type="line"></point>
      <point x="1469" y="1268" type="line"></point>
      <point x="1475" y="1398" type="line"></point>
      <point x="604" y="1398" type="line"></point>
      <point x="-24" y="0" type="line"></point>
      <point x="144" y="0" type="line"></point>
      <point x="345" y="453" type="line"></point>
      <point x="688" y="453" type="line"></point>
    </contour>
    <contour>
      <point x="688" y="573" type="line"></point>
      <point x="393" y="573" type="line"></point>
      <point x="688" y="1249" type="line"></point>
    </contour>
    <contour>
      <point x="1014" y="1436.76" type="move" name="top"></point>
    </contour>
  </outline>
</glyph>
<glyph name="multiply" format="1">
  <advance width="950"></advance>
  <unicode hex="00D7"></unicode>
  <outline>
    <contour>
<<<<<<< HEAD
      <point x="759" y="253" type="line"></point>
      <point x="846" y="349" type="line"></point>
      <point x="846" y="349"></point>
      <point x="577" y="645"></point>
      <point x="555" y="667" type="curve"></point>
      <point x="843" y="975" type="line"></point>
      <point x="748" y="1071" type="line"></point>
      <point x="465" y="763" type="line"></point>
      <point x="179" y="1075" type="line"></point>
      <point x="88" y="979" type="line"></point>
      <point x="374" y="667" type="line"></point>
      <point x="78" y="346" type="line"></point>
      <point x="169" y="253" type="line"></point>
      <point x="465" y="570" type="line"></point>
=======
      <point x="763" y="240" type="line"></point>
      <point x="850" y="333" type="line"></point>
      <point x="850" y="333"></point>
      <point x="581" y="617"></point>
      <point x="559" y="638" type="curve"></point>
      <point x="847" y="934" type="line"></point>
      <point x="752" y="1026" type="line"></point>
      <point x="469" y="730" type="line"></point>
      <point x="183" y="1030" type="line"></point>
      <point x="92" y="937" type="line"></point>
      <point x="378" y="638" type="line"></point>
      <point x="82" y="330" type="line"></point>
      <point x="173" y="240" type="line"></point>
      <point x="469" y="545" type="line"></point>
>>>>>>> a682e5496193d53979a8881d15f4a58493c1359d
    </contour>
  </outline>
</glyph>
<glyph name="Oslash" format="1">
  <advance width="1055"></advance>
  <unicode hex="00D8"></unicode>
  <outline>
    <contour>
      <point x="202" y="-228" type="line"></point>
      <point x="926" y="1670" type="line"></point>
      <point x="824" y="1709" type="line"></point>
      <point x="106" y="-194" type="line"></point>
    </contour>
    <component base="O"></component>
  </outline>
</glyph>
<glyph name="Thorn" format="1">
  <advance width="1123"></advance>
  <unicode hex="00DE"></unicode>
  <outline>
    <contour>
      <point x="158" y="1" type="line"></point>
      <point x="334" y="1" type="line"></point>
      <point x="334" y="423" type="line"></point>
      <point x="521" y="423" type="line" smooth="yes"></point>
      <point x="859" y="423"></point>
      <point x="983" y="544"></point>
      <point x="983" y="782" type="curve" smooth="yes"></point>
      <point x="983" y="1029"></point>
      <point x="795" y="1103"></point>
      <point x="524" y="1103" type="curve" smooth="yes"></point>
      <point x="334" y="1103" type="line"></point>
      <point x="334" y="1416" type="line"></point>
      <point x="158" y="1416" type="line"></point>
    </contour>
    <contour>
      <point x="334" y="979" type="line"></point>
      <point x="523" y="979" type="line" smooth="yes"></point>
      <point x="703" y="979"></point>
      <point x="807" y="941"></point>
      <point x="807" y="780" type="curve" smooth="yes"></point>
      <point x="807" y="600"></point>
      <point x="734" y="549"></point>
      <point x="517" y="549" type="curve" smooth="yes"></point>
      <point x="334" y="549" type="line"></point>
    </contour>
  </outline>
</glyph>
<glyph name="germandbls" format="1">
  <advance width="1209"></advance>
  <unicode hex="00DF"></unicode>
  <outline>
    <contour>
      <point x="307" y="0" type="line"></point>
      <point x="143" y="0" type="line"></point>
      <point x="143" y="983" type="line" smooth="yes"></point>
      <point x="143" y="1266"></point>
      <point x="295" y="1416"></point>
      <point x="592" y="1416" type="curve" smooth="yes"></point>
      <point x="816" y="1416"></point>
      <point x="959" y="1294"></point>
      <point x="959" y="1113" type="curve" smooth="yes"></point>
      <point x="959" y="907"></point>
      <point x="750" y="849"></point>
      <point x="750" y="760" type="curve" smooth="yes"></point>
      <point x="750" y="646"></point>
      <point x="1142" y="570"></point>
      <point x="1142" y="284" type="curve" smooth="yes"></point>
      <point x="1142" y="100"></point>
      <point x="1020" y="-20"></point>
      <point x="820" y="-20" type="curve" smooth="yes"></point>
      <point x="694" y="-20"></point>
      <point x="555" y="16"></point>
      <point x="477" y="54" type="curve"></point>
      <point x="521" y="174" type="line"></point>
      <point x="577" y="146"></point>
      <point x="690" y="108"></point>
      <point x="801" y="108" type="curve" smooth="yes"></point>
      <point x="929" y="108"></point>
      <point x="982" y="193"></point>
      <point x="982" y="281" type="curve" smooth="yes"></point>
      <point x="982" y="488"></point>
      <point x="598" y="555"></point>
      <point x="598" y="745" type="curve" smooth="yes"></point>
      <point x="598" y="907"></point>
      <point x="802" y="914"></point>
      <point x="802" y="1114" type="curve" smooth="yes"></point>
      <point x="802" y="1219"></point>
      <point x="734" y="1291"></point>
      <point x="597" y="1291" type="curve" smooth="yes"></point>
      <point x="410" y="1291"></point>
      <point x="307" y="1221"></point>
      <point x="307" y="987" type="curve" smooth="yes"></point>
    </contour>
  </outline>
</glyph>
<glyph name="ae" format="1">
<<<<<<< HEAD
  <advance width="1550"></advance>
  <unicode hex="00E6"></unicode>
  <outline>
    <contour>
      <point x="343" y="-20" type="curve"></point>
      <point x="614" y="-20"></point>
      <point x="725" y="152"></point>
      <point x="759" y="254" type="curve"></point>
      <point x="801" y="147"></point>
      <point x="894" y="-20"></point>
      <point x="1169" y="-20" type="curve" smooth="yes"></point>
      <point x="1328" y="-20"></point>
      <point x="1436" y="17"></point>
      <point x="1530" y="75" type="curve"></point>
      <point x="1495" y="195" type="line"></point>
      <point x="1391" y="139"></point>
      <point x="1307" y="109"></point>
      <point x="1178" y="109" type="curve" smooth="yes"></point>
      <point x="981" y="109"></point>
      <point x="851" y="222"></point>
      <point x="841" y="508" type="curve"></point>
      <point x="1389" y="508"></point>
      <point x="1537" y="594"></point>
      <point x="1537" y="801" type="curve" smooth="yes"></point>
      <point x="1537" y="955"></point>
      <point x="1424" y="1106"></point>
      <point x="1163" y="1106" type="curve" smooth="yes"></point>
      <point x="1020" y="1106"></point>
      <point x="845" y="1023"></point>
      <point x="794" y="855" type="curve"></point>
      <point x="761" y="1036"></point>
      <point x="625" y="1106"></point>
      <point x="443" y="1106" type="curve" smooth="yes"></point>
      <point x="321" y="1106"></point>
      <point x="195" y="1083"></point>
      <point x="81" y="1029" type="curve"></point>
      <point x="126" y="904" type="line"></point>
      <point x="226" y="954"></point>
      <point x="342" y="980"></point>
      <point x="446" y="980" type="curve" smooth="yes"></point>
      <point x="609" y="980"></point>
      <point x="677" y="898"></point>
      <point x="677" y="742" type="curve" smooth="yes"></point>
      <point x="677" y="593" type="line"></point>
      <point x="599" y="603"></point>
      <point x="529" y="607"></point>
      <point x="467" y="607" type="curve" smooth="yes"></point>
      <point x="148" y="607"></point>
      <point x="27" y="482"></point>
      <point x="27" y="293" type="curve" smooth="yes"></point>
      <point x="27" y="92"></point>
      <point x="152" y="-20"></point>
    </contour>
    <contour>
      <point x="351" y="104" type="curve" smooth="yes"></point>
      <point x="258" y="104"></point>
      <point x="185" y="167"></point>
      <point x="185" y="292" type="curve" smooth="yes"></point>
      <point x="185" y="415"></point>
      <point x="247" y="494"></point>
      <point x="477" y="494" type="curve" smooth="yes"></point>
      <point x="533" y="494"></point>
      <point x="600" y="489"></point>
      <point x="677" y="479" type="curve"></point>
      <point x="677" y="420" type="line" smooth="yes"></point>
      <point x="677" y="216"></point>
      <point x="552" y="104"></point>
    </contour>
    <contour>
      <point x="844" y="619" type="curve"></point>
      <point x="866" y="855"></point>
      <point x="987" y="980"></point>
      <point x="1166" y="980" type="curve" smooth="yes"></point>
      <point x="1321" y="980"></point>
      <point x="1407" y="905"></point>
      <point x="1407" y="800" type="curve" smooth="yes"></point>
      <point x="1407" y="661"></point>
      <point x="1244" y="619"></point>
    </contour>
    <contour>
      <point x="824" y="1084.95" type="move" name="top"></point>
=======
  <advance width="1598"></advance>
  <unicode hex="00E6"></unicode>
  <outline>
    <contour>
      <point x="349" y="-20" type="curve"></point>
      <point x="620" y="-20"></point>
      <point x="731" y="145"></point>
      <point x="765" y="243" type="curve"></point>
      <point x="807" y="140"></point>
      <point x="900" y="-20"></point>
      <point x="1175" y="-20" type="curve" smooth="yes"></point>
      <point x="1334" y="-20"></point>
      <point x="1442" y="15"></point>
      <point x="1536" y="71" type="curve"></point>
      <point x="1501" y="186" type="line"></point>
      <point x="1397" y="132"></point>
      <point x="1313" y="100"></point>
      <point x="1184" y="100" type="curve" smooth="yes"></point>
      <point x="987" y="100"></point>
      <point x="857" y="212"></point>
      <point x="847" y="486" type="curve"></point>
      <point x="1395" y="486"></point>
      <point x="1543" y="569"></point>
      <point x="1543" y="768" type="curve" smooth="yes"></point>
      <point x="1543" y="916"></point>
      <point x="1430" y="1060"></point>
      <point x="1169" y="1060" type="curve" smooth="yes"></point>
      <point x="1026" y="1060"></point>
      <point x="851" y="981"></point>
      <point x="800" y="820" type="curve"></point>
      <point x="767" y="993"></point>
      <point x="631" y="1060"></point>
      <point x="449" y="1060" type="curve" smooth="yes"></point>
      <point x="327" y="1060"></point>
      <point x="201" y="1038"></point>
      <point x="87" y="987" type="curve"></point>
      <point x="132" y="867" type="line"></point>
      <point x="232" y="915"></point>
      <point x="348" y="940"></point>
      <point x="452" y="940" type="curve" smooth="yes"></point>
      <point x="615" y="940"></point>
      <point x="683" y="861"></point>
      <point x="683" y="711" type="curve" smooth="yes"></point>
      <point x="683" y="568" type="line"></point>
      <point x="605" y="578"></point>
      <point x="535" y="581"></point>
      <point x="473" y="581" type="curve" smooth="yes"></point>
      <point x="154" y="581"></point>
      <point x="33" y="461"></point>
      <point x="33" y="280" type="curve" smooth="yes"></point>
      <point x="33" y="87"></point>
      <point x="158" y="-20"></point>
    </contour>
    <contour>
      <point x="357" y="99" type="curve" smooth="yes"></point>
      <point x="264" y="99"></point>
      <point x="191" y="159"></point>
      <point x="191" y="279" type="curve" smooth="yes"></point>
      <point x="191" y="397"></point>
      <point x="253" y="473"></point>
      <point x="483" y="473" type="curve" smooth="yes"></point>
      <point x="539" y="473"></point>
      <point x="606" y="468"></point>
      <point x="683" y="459" type="curve"></point>
      <point x="683" y="402" type="line" smooth="yes"></point>
      <point x="683" y="206"></point>
      <point x="558" y="99"></point>
    </contour>
    <contour>
      <point x="850" y="593" type="curve"></point>
      <point x="872" y="820"></point>
      <point x="993" y="940"></point>
      <point x="1172" y="940" type="curve" smooth="yes"></point>
      <point x="1327" y="940"></point>
      <point x="1413" y="868"></point>
      <point x="1413" y="767" type="curve" smooth="yes"></point>
      <point x="1413" y="633"></point>
      <point x="1250" y="593"></point>
    </contour>
    <contour>
      <point x="830" y="1034.272" type="move" name="top"></point>
>>>>>>> a682e5496193d53979a8881d15f4a58493c1359d
    </contour>
  </outline>
</glyph>
<glyph name="eth" format="1">
  <advance width="1166"></advance>
  <unicode hex="00F0"></unicode>
  <outline>
    <contour>
      <point x="583" y="-20" type="curve" smooth="yes"></point>
      <point x="915" y="-20"></point>
      <point x="1078" y="197"></point>
      <point x="1078" y="475" type="curve" smooth="yes"></point>
      <point x="1078" y="607"></point>
      <point x="1044" y="743"></point>
      <point x="993" y="839" type="curve" smooth="yes"></point>
      <point x="927" y="963"></point>
      <point x="828" y="1089"></point>
      <point x="636" y="1289" type="curve"></point>
      <point x="889" y="1382" type="line"></point>
      <point x="841" y="1485" type="line"></point>
      <point x="552" y="1377" type="line"></point>
      <point x="397" y="1526" type="line"></point>
      <point x="212" y="1526" type="line"></point>
      <point x="428" y="1329" type="line"></point>
      <point x="204" y="1245" type="line"></point>
      <point x="251" y="1139" type="line"></point>
      <point x="507" y="1236" type="line"></point>
      <point x="689" y="1062"></point>
      <point x="789" y="934"></point>
      <point x="842" y="838" type="curve"></point>
      <point x="782" y="882"></point>
      <point x="716" y="940"></point>
      <point x="568" y="940" type="curve" smooth="yes"></point>
      <point x="288" y="940"></point>
      <point x="88" y="753"></point>
      <point x="88" y="473" type="curve" smooth="yes"></point>
      <point x="88" y="215"></point>
      <point x="259" y="-20"></point>
    </contour>
    <contour>
      <point x="589" y="100" type="curve" smooth="yes"></point>
      <point x="358" y="100"></point>
      <point x="247" y="286"></point>
      <point x="247" y="472" type="curve" smooth="yes"></point>
      <point x="247" y="671"></point>
      <point x="371" y="822"></point>
      <point x="583" y="822" type="curve" smooth="yes"></point>
      <point x="807" y="822"></point>
      <point x="930" y="656"></point>
      <point x="930" y="481" type="curve" smooth="yes"></point>
      <point x="930" y="255"></point>
      <point x="814" y="100"></point>
    </contour>
  </outline>
</glyph>
<glyph name="divide" format="1">
  <advance width="951"></advance>
  <unicode hex="00F7"></unicode>
  <outline>
    <contour>
      <point x="381" y="892" type="line"></point>
      <point x="574" y="892" type="line"></point>
      <point x="574" y="1094" type="line"></point>
      <point x="381" y="1094" type="line"></point>
    </contour>
    <contour>
      <point x="0" y="507" type="line"></point>
      <point x="951" y="507" type="line"></point>
      <point x="951" y="645" type="line"></point>
      <point x="0" y="645" type="line"></point>
    </contour>
    <contour>
      <point x="381" y="32" type="line"></point>
      <point x="572" y="32" type="line"></point>
      <point x="572" y="238" type="line"></point>
      <point x="381" y="238" type="line"></point>
    </contour>
  </outline>
</glyph>
<glyph name="oslash" format="1">
  <advance width="1097"></advance>
  <unicode hex="00F8"></unicode>
  <outline>
    <contour>
      <point x="191" y="-162" type="line"></point>
      <point x="916" y="1200" type="line"></point>
      <point x="845" y="1238" type="line"></point>
      <point x="126" y="-124" type="line"></point>
    </contour>
    <component base="o"></component>
  </outline>
</glyph>
<glyph name="thorn" format="1">
<<<<<<< HEAD
  <advance width="571"></advance>
  <unicode hex="00FE"></unicode>
  <outline>
    <contour>
      <point x="198" y="316" type="line"></point>
      <point x="198" y="-464" type="line"></point>
      <point x="366" y="-464" type="line"></point>
      <point x="366" y="316" type="line"></point>
=======
  <advance width="561"></advance>
  <unicode hex="00FE"></unicode>
  <outline>
    <contour>
      <point x="199" y="296" type="line"></point>
      <point x="199" y="-453" type="line"></point>
      <point x="363" y="-453" type="line"></point>
      <point x="363" y="296" type="line"></point>
>>>>>>> a682e5496193d53979a8881d15f4a58493c1359d
    </contour>
    <component base="b"></component>
  </outline>
</glyph>
<glyph name="dcroat" format="1">
<<<<<<< HEAD
  <advance width="775"></advance>
  <unicode hex="0111"></unicode>
  <outline>
    <contour>
      <point x="128" y="1263" type="line"></point>
      <point x="623" y="1263" type="line"></point>
      <point x="623" y="1375" type="line"></point>
      <point x="128" y="1375" type="line"></point>
=======
  <advance width="777"></advance>
  <unicode hex="0111"></unicode>
  <outline>
    <contour>
      <point x="131" y="1214" type="line"></point>
      <point x="626" y="1214" type="line"></point>
      <point x="626" y="1322" type="line"></point>
      <point x="131" y="1322" type="line"></point>
>>>>>>> a682e5496193d53979a8881d15f4a58493c1359d
    </contour>
    <component base="d"></component>
  </outline>
</glyph>
<glyph name="dotlessi" format="1">
<<<<<<< HEAD
  <advance width="571"></advance>
  <unicode hex="0131"></unicode>
  <outline>
    <contour>
      <point x="198" y="0" type="line"></point>
      <point x="362" y="0" type="line"></point>
      <point x="362" y="1082" type="line"></point>
      <point x="198" y="1082" type="line"></point>
    </contour>
    <contour>
      <point x="286" y="1082" type="move" name="top"></point>
=======
  <advance width="561"></advance>
  <unicode hex="0131"></unicode>
  <outline>
    <contour>
      <point x="199" y="0" type="line"></point>
      <point x="363" y="0" type="line"></point>
      <point x="363" y="1040" type="line"></point>
      <point x="199" y="1040" type="line"></point>
    </contour>
    <contour>
      <point x="286" y="1040" type="move" name="top"></point>
>>>>>>> a682e5496193d53979a8881d15f4a58493c1359d
    </contour>
  </outline>
</glyph>
